<!DOCTYPE svg PUBLIC "-//W3C//DTD SVG 20010904//EN" "http://www.w3.org/TR/2001/REC-SVG-20010904/DTD/svg10.dtd">
<svg version="1.0" xmlns="http://www.w3.org/2000/svg" width="1200px" height="910px" viewBox="0 0 12000 9100" preserveAspectRatio="xMidYMid meet">
<g id="layer101" fill="#0001aa" stroke="none">
 <path d="M9569 7060 c-74 -4 -162 -13 -195 -19 -222 -44 -311 -65 -379 -93 -27 -11 -68 -24 -90 -28 -37 -7 -91 -28 -210 -84 -27 -13 -64 -29 -82 -36 -18 -7 -38 -18 -44 -26 -6 -8 -20 -14 -29 -14 -10 0 -31 -11 -47 -24 -15 -13 -39 -27 -53 -31 -14 -4 -27 -10 -30 -14 -7 -9 -100 -71 -106 -71 -3 0 -22 -15 -42 -34 -20 -19 -55 -48 -77 -64 -139 -104 -297 -294 -391 -469 -44 -82 -41 -78 -56 -66 -7 6 -36 15 -63 21 -78 17 -99 27 -115 58 -58 114 -189 225 -300 254 -25 7 -54 17 -65 23 -27 14 -325 19 -460 6 -142 -13 -491 -38 -670 -49 -559 -32 -584 -33 -808 -20 -402 23 -481 28 -622 44 -77 9 -183 21 -235 26 -52 6 -108 15 -124 20 -16 6 -43 10 -60 10 -17 0 -67 7 -111 16 -44 8 -102 19 -130 24 -27 5 -77 14 -110 21 -33 6 -82 15 -110 19 -27 4 -70 12 -95 18 -25 6 -81 18 -125 27 -44 9 -96 20 -115 25 -19 4 -71 16 -115 25 -121 26 -206 45 -248 58 -47 13 -69 2 -78 -39 -7 -29 -24 -80 -40 -119 -5 -11 -18 -49 -29 -85 -12 -36 -25 -72 -30 -81 -5 -9 -12 -33 -15 -53 -4 -20 -11 -39 -16 -42 -5 -3 -9 -12 -9 -21 0 -8 -6 -29 -13 -46 -20 -48 -38 -98 -47 -136 -5 -18 -13 -38 -19 -44 -6 -6 -11 -24 -11 -39 0 -15 -4 -28 -10 -28 -6 0 -10 72 -10 195 0 191 0 194 -22 206 -13 7 -41 16 -63 20 -22 4 -71 15 -110 24 -38 9 -88 20 -110 24 -22 4 -59 14 -82 21 l-43 13 -2 196 -3 196 -35 17 c-19 9 -49 17 -67 18 -17 0 -44 5 -60 11 -15 6 -50 15 -78 20 -27 4 -81 15 -120 23 -158 34 -233 48 -287 56 -31 4 -61 10 -66 14 -6 4 -41 11 -79 16 -37 6 -108 17 -158 25 -177 28 -276 37 -291 24 -12 -10 -14 -383 -14 -2574 0 -2339 1 -2564 16 -2576 9 -7 39 -16 68 -20 28 -4 98 -15 156 -24 58 -9 124 -19 148 -22 34 -4 45 -10 53 -30 5 -13 9 -102 9 -197 0 -137 3 -176 14 -185 13 -11 107 -31 238 -50 31 -5 61 -11 66 -15 6 -3 36 -10 69 -16 32 -5 90 -16 128 -25 39 -8 94 -19 123 -25 29 -5 57 -12 63 -15 5 -4 34 -11 62 -16 29 -4 81 -15 117 -24 36 -8 94 -22 130 -30 84 -20 146 -34 191 -41 40 -7 36 -15 113 194 8 20 22 57 31 82 9 25 24 63 32 85 9 22 22 54 29 72 8 17 14 38 14 46 0 9 4 18 9 22 5 3 13 20 17 37 3 18 10 39 14 48 4 8 15 33 23 55 23 62 44 118 54 140 5 12 9 -76 11 -211 2 -169 6 -235 15 -242 6 -6 44 -18 82 -27 181 -44 213 -51 313 -70 l32 -7 0 -192 c0 -223 -2 -218 95 -235 33 -6 94 -18 135 -26 41 -9 100 -19 132 -24 31 -5 60 -11 65 -14 5 -3 43 -11 84 -17 41 -6 115 -17 164 -25 50 -9 127 -19 172 -24 45 -5 86 -12 92 -15 8 -6 153 -22 286 -32 28 -3 102 -10 165 -17 157 -16 1058 -16 1245 0 77 7 167 17 200 23 33 5 92 14 130 19 39 6 124 22 190 36 66 14 143 30 170 35 80 15 293 89 395 137 80 38 238 136 289 180 46 40 151 146 194 198 77 93 197 305 212 375 4 16 11 32 16 35 5 4 9 15 9 25 0 33 14 30 81 -16 35 -25 105 -65 154 -89 63 -30 105 -59 140 -95 163 -168 381 -266 690 -311 92 -13 428 -12 530 1 44 6 114 15 155 20 41 5 91 14 110 20 19 5 50 10 69 10 18 0 79 11 135 24 55 14 117 27 136 31 34 6 84 22 275 84 50 16 132 47 184 70 93 39 307 163 346 198 11 10 43 35 70 55 60 43 156 142 212 218 71 95 102 164 152 335 15 50 39 175 52 265 19 140 28 324 35 740 6 377 6 396 -12 417 -18 21 -29 23 -216 29 l-198 7 -2 196 -3 196 -285 0 c-197 -1 -339 -6 -460 -19 -96 -9 -219 -21 -273 -26 -54 -5 -102 -12 -108 -15 -5 -4 -49 -11 -97 -16 -186 -21 -245 -33 -253 -54 -4 -11 -8 -258 -8 -549 -1 -306 -5 -553 -11 -585 -5 -31 -14 -92 -19 -136 -5 -48 -9 440 -10 1239 -1 1120 1 1332 14 1400 8 45 16 97 18 116 2 19 5 -117 5 -302 1 -199 6 -348 12 -363 9 -23 15 -26 36 -21 34 9 351 56 374 56 19 0 20 -10 22 -192 l3 -193 85 3 c47 2 117 7 155 13 209 29 779 46 1022 29 178 -11 187 -11 201 6 30 40 -10 962 -48 1089 -5 17 -12 54 -16 83 -4 29 -11 55 -15 58 -5 3 -9 13 -9 23 0 54 -65 211 -126 304 -56 85 -185 212 -309 302 -85 62 -106 80 -121 107 -26 45 -154 173 -236 235 -159 121 -323 207 -447 234 -25 6 -64 14 -86 19 -143 32 -265 40 -456 30z m-1999 -3730 c0 -27 -4 -51 -9 -54 -15 -10 -41 5 -41 23 -1 9 -7 27 -14 41 -13 23 -13 25 17 35 18 6 35 10 40 8 4 -2 7 -26 7 -53z"/>
 </g>
<g id="layer102" fill="#113bc3" stroke="none">
 <path d="M9545 7010 c-63 -17 -228 -31 -236 -19 -4 7 -13 8 -25 1 -11 -5 -41 -15 -69 -21 -27 -7 -68 -20 -90 -30 -22 -10 -74 -26 -115 -36 -41 -10 -95 -27 -120 -39 -25 -12 -65 -23 -90 -24 -29 -2 -56 -12 -77 -28 -17 -13 -40 -24 -50 -24 -10 0 -38 -14 -63 -30 -25 -16 -51 -30 -59 -30 -7 0 -40 -18 -73 -40 -33 -22 -66 -40 -72 -40 -7 0 -23 -11 -36 -25 -13 -14 -29 -25 -37 -25 -7 0 -13 -5 -13 -10 0 -6 -8 -13 -17 -17 -18 -6 -63 -43 -161 -131 -29 -26 -58 -51 -65 -57 -6 -5 -34 -37 -61 -70 -27 -33 -55 -65 -61 -70 -7 -6 -27 -35 -45 -65 -18 -30 -39 -62 -46 -71 -8 -8 -15 -24 -17 -35 -2 -10 -20 -54 -40 -97 -20 -42 -37 -85 -37 -95 0 -10 -5 -23 -12 -30 -6 -6 -15 -30 -19 -54 -8 -45 -24 -112 -40 -165 -5 -17 -14 -82 -20 -145 -5 -62 -14 -114 -19 -116 -13 -5 -13 -42 0 -42 6 0 10 -47 10 -120 0 -96 -3 -120 -14 -120 -22 0 -25 -31 -23 -226 1 -101 -1 -176 -5 -166 -6 15 -7 14 -7 -3 0 -11 4 -27 9 -35 6 -10 10 -11 10 -2 0 6 5 12 11 12 14 0 5 -140 -11 -187 -7 -19 -9 -340 -7 -933 5 -1142 12 -1231 118 -1426 114 -212 298 -367 519 -437 170 -54 226 -62 465 -62 299 0 456 18 705 83 41 11 111 27 155 37 44 9 108 28 142 41 34 13 68 24 76 24 15 0 77 25 152 59 22 11 60 27 85 36 154 59 410 228 544 359 88 87 225 279 226 317 0 8 7 23 15 33 8 11 15 32 15 46 0 14 4 30 9 35 18 20 59 222 72 355 5 58 14 129 19 159 6 30 10 252 10 493 0 392 -2 439 -16 445 -32 12 -488 9 -519 -4 -41 -16 -249 -36 -360 -35 -50 1 -122 -5 -160 -13 -39 -8 -91 -15 -117 -15 -34 0 -48 -4 -48 -14 0 -9 -19 -16 -61 -20 -33 -4 -72 -11 -85 -16 l-24 -10 0 -606 c0 -503 -3 -616 -15 -658 -8 -28 -17 -63 -19 -77 -11 -54 -49 -93 -130 -134 -73 -36 -84 -39 -165 -39 -68 -1 -93 3 -119 19 -40 24 -72 81 -72 128 0 19 -7 56 -15 83 -22 74 -23 3006 0 3080 8 27 15 65 15 85 0 53 34 121 83 166 90 83 251 110 334 56 42 -27 58 -54 84 -143 9 -33 14 -179 18 -555 l6 -510 50 2 c28 1 79 7 115 12 68 11 233 33 385 51 149 19 357 32 600 39 l230 6 3 315 c2 198 -1 345 -8 395 -6 44 -15 127 -20 185 -5 58 -16 137 -24 175 -8 39 -20 95 -26 125 -6 30 -16 59 -21 64 -5 6 -9 19 -9 29 0 10 -6 33 -14 50 -8 18 -17 39 -20 47 -18 42 -66 110 -123 177 -29 33 -53 65 -53 70 0 18 -223 186 -234 176 -3 -3 -27 8 -53 24 -26 16 -70 40 -98 52 -57 27 -236 76 -313 87 -28 3 -52 10 -52 14 0 10 -308 10 -345 0z"/>
 <path d="M1200 6961 c0 -7 -15 -9 -44 -5 -41 6 -45 5 -51 -17 -3 -13 -4 -1158 -3 -2544 l3 -2519 50 -19 c28 -11 84 -23 125 -27 41 -3 83 -10 93 -14 11 -5 17 -4 17 4 0 6 5 8 11 4 7 -4 39 -10 73 -14 86 -11 267 -45 496 -94 36 -8 101 -22 145 -31 44 -9 93 -21 108 -25 33 -11 36 -6 111 198 33 88 49 129 62 154 8 14 14 35 14 46 0 12 4 23 9 27 5 3 12 19 16 36 4 17 13 42 21 57 8 15 14 33 14 40 0 7 4 20 9 30 5 9 16 36 25 60 25 66 45 119 60 160 37 99 49 129 62 155 8 16 14 37 14 47 0 10 4 21 9 25 5 3 12 19 16 36 4 17 13 42 21 57 8 15 14 34 14 42 0 9 4 20 8 25 5 6 33 75 62 155 29 80 57 149 62 155 4 5 8 16 8 25 0 8 7 28 15 44 8 15 15 33 15 38 0 6 6 24 14 41 14 33 36 90 60 155 13 35 28 75 60 160 8 20 22 59 32 85 14 39 21 47 38 45 l21 -3 3 -1143 2 -1142 25 -12 c14 -6 25 -14 25 -18 0 -4 22 -10 50 -14 27 -4 52 -11 55 -16 3 -6 24 -10 46 -10 22 0 53 -7 69 -15 17 -9 30 -11 30 -6 0 11 22 9 130 -14 165 -34 245 -50 405 -79 299 -55 299 -55 315 -27 7 14 9 805 8 2530 -3 2259 -5 2512 -19 2526 -8 8 -44 20 -79 26 -36 6 -68 15 -72 21 -3 7 -30 15 -60 19 -79 11 -175 27 -227 38 -25 5 -80 16 -121 25 -41 8 -109 22 -150 31 -41 8 -95 20 -120 25 -25 5 -65 14 -90 21 -25 6 -65 14 -90 19 -25 4 -62 13 -84 20 -21 6 -42 8 -45 3 -3 -4 -22 -8 -41 -8 -27 0 -36 -5 -38 -20 -2 -11 -10 -33 -17 -50 -7 -16 -15 -39 -18 -50 -3 -11 -22 -65 -42 -120 -20 -55 -40 -113 -45 -130 -9 -33 -29 -89 -41 -120 -5 -11 -25 -69 -44 -130 -20 -60 -40 -119 -45 -130 -4 -11 -18 -49 -30 -85 -12 -36 -26 -74 -30 -85 -5 -11 -25 -69 -45 -130 -19 -60 -39 -119 -44 -130 -13 -32 -32 -88 -41 -120 -9 -32 -28 -88 -41 -120 -17 -41 -41 -111 -46 -135 -3 -14 -9 -29 -13 -35 -4 -5 -18 -44 -30 -85 -12 -41 -26 -79 -31 -84 -5 -6 -9 -19 -9 -29 0 -10 -6 -33 -14 -50 -8 -18 -16 -41 -19 -52 -7 -26 -35 -105 -46 -130 -5 -11 -12 -31 -15 -45 -7 -35 -31 -64 -44 -56 -9 5 -12 299 -12 1151 l0 1145 -22 14 c-13 8 -51 20 -85 27 -41 7 -63 16 -63 25 0 9 -12 14 -33 14 -17 0 -48 5 -67 11 -19 5 -57 14 -85 19 -27 5 -84 16 -125 24 -41 9 -106 20 -143 26 -38 5 -73 12 -78 16 -6 3 -38 10 -72 14 -118 16 -252 39 -270 45 -10 4 -17 2 -17 -4z"/>
 <path d="M4440 6312 c0 -6 -18 -10 -42 -9 l-43 2 -3 -2542 -2 -2541 27 -6 c33 -6 153 -22 278 -36 197 -24 366 -32 730 -37 346 -4 394 -3 525 16 80 11 174 23 210 26 126 11 226 28 320 52 152 40 286 83 306 98 11 8 26 15 34 15 8 0 40 16 70 35 30 19 69 41 85 48 72 33 230 183 318 302 67 90 69 93 120 200 79 163 117 310 137 530 5 55 13 129 19 165 16 94 13 281 -4 380 -8 47 -15 100 -15 119 0 65 -51 194 -106 266 -75 98 -283 162 -556 173 -41 2 -48 5 -48 22 0 13 10 24 28 31 15 6 45 19 67 29 22 10 51 22 65 26 14 4 35 13 47 21 12 8 49 29 82 46 135 73 294 209 357 307 51 80 54 85 60 100 3 8 12 29 19 45 31 70 43 114 54 185 12 87 22 386 25 714 1 174 4 230 14 234 18 6 16 269 -3 347 -8 33 -14 77 -15 99 0 84 -80 280 -143 351 -115 130 -264 188 -482 186 -172 -2 -437 -17 -500 -29 -142 -26 -445 -41 -445 -22 0 13 -101 5 -216 -17 -104 -19 -751 -14 -764 6 -5 9 -60 15 -166 21 -87 5 -166 11 -174 14 -8 3 -64 10 -125 15 -60 5 -118 12 -127 16 -10 4 -18 3 -18 -3z m1565 -934 c122 -21 175 -62 212 -163 16 -46 18 -91 18 -530 0 -445 -1 -484 -19 -540 -42 -130 -69 -150 -281 -196 -151 -33 -181 -35 -189 -13 -8 21 -8 1439 0 1447 11 10 193 7 259 -5z m103 -2240 c57 -27 86 -69 108 -153 16 -60 18 -115 19 -387 0 -241 -3 -320 -12 -329 -7 -7 -13 -24 -13 -37 0 -13 -9 -42 -20 -65 -52 -111 -115 -143 -354 -177 -64 -10 -80 -9 -87 2 -5 7 -8 272 -6 588 l2 575 55 6 c100 11 261 -1 308 -23z"/>
 </g>
<g id="layer103" fill="#2990e6" stroke="none">
 <path d="M9545 7010 c-16 -5 -77 -14 -135 -20 -92 -10 -159 -23 -300 -60 -19 -5 -66 -16 -105 -26 -38 -9 -91 -27 -117 -39 -26 -12 -63 -26 -84 -30 -20 -3 -53 -17 -73 -31 -20 -13 -44 -24 -54 -24 -10 0 -33 -11 -51 -25 -18 -14 -38 -25 -45 -25 -7 0 -46 -20 -87 -45 -40 -25 -76 -45 -80 -45 -6 0 -10 -3 -144 -106 -149 -116 -279 -249 -352 -362 -20 -31 -41 -61 -45 -67 -18 -22 -103 -204 -103 -221 0 -11 -7 -28 -15 -38 -8 -11 -15 -33 -15 -49 0 -15 -5 -37 -11 -48 -6 -11 -14 -41 -19 -67 -5 -26 -14 -69 -21 -97 -9 -35 -13 -171 -14 -455 -1 -388 -11 -562 -36 -650 -7 -23 -9 -350 -6 -935 5 -1136 13 -1226 118 -1421 114 -212 298 -367 519 -437 170 -54 226 -62 465 -62 299 0 456 18 705 83 41 11 111 27 155 37 44 9 108 28 142 41 34 13 68 24 76 24 15 0 77 25 152 59 22 11 60 27 85 36 154 59 410 228 544 359 88 87 225 279 226 317 0 8 7 23 15 33 8 11 15 32 15 46 0 14 4 30 9 35 17 19 59 220 71 345 5 52 14 131 20 175 7 52 10 230 8 505 l-3 425 -70 3 c-138 7 -702 -30 -895 -58 -36 -5 -135 -19 -220 -31 -85 -12 -165 -25 -177 -30 l-23 -9 0 -606 c0 -503 -3 -616 -15 -658 -8 -28 -17 -63 -19 -77 -11 -54 -49 -93 -130 -134 -73 -36 -84 -39 -165 -39 -68 -1 -93 3 -119 19 -40 24 -72 81 -72 128 0 19 -7 56 -15 83 -22 74 -23 3006 0 3080 8 27 15 65 15 85 0 53 34 121 83 166 90 83 251 110 334 56 42 -27 58 -54 84 -143 9 -33 14 -179 18 -555 l6 -510 50 2 c28 1 79 7 115 12 68 11 233 33 385 51 149 19 357 32 600 39 l230 6 3 315 c2 198 -1 345 -8 395 -6 44 -15 127 -20 185 -5 58 -16 137 -24 175 -8 39 -20 95 -26 125 -6 30 -16 59 -21 64 -5 6 -9 19 -9 29 0 10 -6 33 -14 50 -8 18 -17 39 -20 47 -21 47 -81 132 -142 199 -87 95 -287 239 -419 300 -62 29 -235 76 -341 92 -97 15 -328 21 -369 9z"/>
 <path d="M1106 6944 c-3 -9 -6 -1151 -6 -2539 0 -2485 0 -2524 19 -2535 11 -5 33 -10 50 -10 17 0 50 -4 73 -9 47 -11 152 -29 238 -41 87 -12 289 -51 490 -94 36 -8 101 -22 145 -31 44 -9 93 -21 108 -25 26 -9 29 -6 46 33 11 23 26 61 35 85 9 23 23 60 31 82 40 107 48 127 61 152 8 14 14 35 14 46 0 12 4 23 9 27 5 3 12 19 16 36 4 17 13 42 21 57 8 15 14 33 14 40 0 7 4 20 9 30 8 16 16 35 56 142 8 22 22 58 30 80 8 22 22 59 31 83 8 23 22 55 30 70 8 16 14 37 14 47 0 10 4 21 9 25 5 3 12 19 16 36 4 17 13 42 21 57 8 15 14 34 14 42 0 9 4 20 8 25 5 6 33 75 62 155 29 80 57 149 62 155 4 5 8 16 8 25 0 8 7 28 15 44 8 15 15 33 15 38 0 6 6 24 14 41 14 33 36 90 60 155 13 35 28 75 60 160 8 20 22 59 32 85 14 39 21 47 38 45 l21 -3 5 -1145 5 -1145 55 -17 c30 -10 91 -24 135 -33 44 -9 96 -20 115 -25 19 -5 73 -16 120 -25 47 -10 114 -23 150 -30 79 -16 149 -30 255 -49 299 -55 299 -55 315 -27 7 14 9 805 8 2530 -3 2220 -5 2512 -18 2525 -9 10 -84 27 -195 46 -213 37 -541 102 -803 161 -104 23 -197 39 -206 36 -9 -4 -16 -14 -16 -23 0 -9 -6 -30 -14 -47 -8 -18 -16 -41 -19 -52 -3 -11 -22 -65 -42 -120 -20 -55 -40 -113 -45 -130 -9 -33 -29 -89 -41 -120 -5 -11 -25 -69 -44 -130 -20 -60 -40 -119 -45 -130 -4 -11 -18 -49 -30 -85 -12 -36 -26 -74 -30 -85 -5 -11 -25 -69 -45 -130 -19 -60 -39 -119 -44 -130 -13 -32 -32 -88 -41 -120 -9 -32 -28 -88 -41 -120 -17 -41 -41 -111 -46 -135 -3 -14 -9 -29 -13 -35 -4 -5 -18 -44 -30 -85 -12 -41 -26 -79 -31 -84 -5 -6 -9 -19 -9 -29 0 -10 -6 -33 -14 -50 -8 -18 -16 -41 -19 -52 -7 -26 -35 -105 -46 -130 -5 -11 -12 -31 -15 -45 -7 -35 -31 -64 -44 -56 -9 5 -12 299 -12 1151 l0 1145 -22 14 c-34 20 -524 122 -823 170 -88 14 -184 31 -214 36 -74 14 -88 13 -95 -6z"/>
 <path d="M6875 6311 c-4 -3 -77 -9 -164 -12 -87 -4 -189 -12 -227 -17 -201 -32 -804 -57 -1163 -49 -294 7 -551 25 -799 57 -84 11 -157 18 -163 15 -5 -4 -9 -971 -9 -2545 l0 -2538 28 -6 c32 -6 152 -22 277 -36 197 -24 366 -32 730 -37 346 -4 394 -3 525 16 80 11 174 23 210 26 126 11 226 28 320 52 152 40 286 83 306 98 11 8 26 15 34 15 8 0 40 16 70 35 30 19 69 41 85 48 72 33 230 183 318 302 67 90 69 93 120 200 79 163 117 310 137 530 5 55 13 129 19 165 16 94 13 281 -4 380 -8 47 -15 100 -15 119 0 65 -51 194 -106 266 -75 98 -283 162 -556 173 -41 2 -48 5 -48 22 0 13 10 24 28 31 15 6 45 19 67 29 22 10 51 22 65 26 14 4 35 13 47 21 12 8 49 29 82 46 135 73 294 209 357 307 51 80 54 85 60 100 3 8 12 29 19 45 56 129 67 213 63 495 -4 273 9 565 28 641 18 74 18 267 -1 344 -8 33 -14 77 -15 99 0 42 -17 100 -64 219 -65 164 -202 269 -401 307 -67 13 -251 21 -260 11z m-870 -933 c122 -21 175 -62 212 -163 16 -46 18 -91 18 -530 0 -445 -1 -484 -19 -540 -42 -130 -69 -150 -281 -196 -151 -33 -181 -35 -189 -13 -8 21 -8 1439 0 1447 11 10 193 7 259 -5z m103 -2240 c57 -27 86 -69 108 -153 16 -60 18 -115 19 -387 0 -241 -3 -320 -12 -329 -7 -7 -13 -24 -13 -37 0 -13 -9 -42 -20 -65 -52 -111 -115 -143 -354 -177 -64 -10 -80 -9 -87 2 -5 7 -8 272 -6 588 l2 575 55 6 c100 11 261 -1 308 -23z"/>
 </g>
<g id="layer104" fill="#38c8fd" stroke="none">
 <path d="M9545 7010 c-16 -5 -75 -13 -130 -19 -54 -6 -102 -16 -106 -23 -8 -13 -173 -49 -177 -38 -2 4 -15 4 -30 -1 -15 -4 -58 -16 -97 -25 -64 -16 -178 -65 -265 -114 -19 -11 -41 -20 -48 -20 -7 0 -30 -11 -50 -25 -20 -14 -43 -25 -51 -25 -8 0 -29 -11 -47 -25 -18 -14 -39 -25 -47 -25 -8 0 -20 -7 -27 -15 -7 -8 -18 -15 -24 -15 -6 0 -29 -14 -50 -30 -22 -17 -43 -30 -48 -30 -5 0 -19 -10 -31 -23 -12 -12 -48 -42 -79 -65 -74 -56 -233 -216 -267 -267 -14 -22 -28 -42 -31 -45 -15 -15 -69 -101 -75 -119 -3 -12 -10 -19 -15 -16 -10 6 -80 -136 -80 -163 0 -10 -5 -23 -12 -30 -6 -6 -15 -30 -19 -54 -8 -45 -24 -112 -40 -165 -16 -52 -31 -257 -19 -261 13 -5 13 -42 0 -42 -7 0 -9 -100 -8 -292 3 -285 -8 -472 -33 -558 -7 -23 -9 -347 -6 -935 5 -1136 13 -1226 118 -1421 114 -212 298 -367 519 -437 170 -54 226 -62 465 -62 299 0 456 18 705 83 41 11 111 27 155 37 44 9 108 28 142 41 34 13 68 24 76 24 15 0 77 25 152 59 22 11 60 27 85 36 154 59 410 228 544 359 88 87 225 279 226 317 0 8 7 23 15 33 8 11 15 32 15 46 0 14 4 30 9 35 17 19 59 220 71 345 5 52 14 131 20 175 7 52 10 230 8 505 l-3 425 -79 3 c-44 2 -82 -1 -85 -6 -10 -14 -374 -33 -382 -20 -8 13 -318 -15 -328 -30 -9 -13 -237 -44 -355 -47 -56 -2 -113 -8 -128 -14 l-28 -11 0 -606 c0 -503 -3 -616 -15 -658 -8 -28 -17 -63 -19 -77 -11 -54 -49 -93 -130 -134 -73 -36 -84 -39 -165 -39 -68 -1 -93 3 -119 19 -40 24 -72 81 -72 128 0 19 -7 56 -15 83 -22 74 -23 3006 0 3080 8 27 15 65 15 85 0 53 34 121 83 166 90 83 251 110 334 56 42 -27 58 -54 84 -143 9 -33 14 -179 18 -555 l6 -510 50 2 c28 1 79 7 115 12 68 11 233 33 385 51 149 19 357 32 600 39 l230 6 3 315 c2 198 -1 345 -8 395 -6 44 -15 127 -20 185 -5 58 -16 137 -24 175 -8 39 -20 95 -26 125 -6 30 -16 59 -21 64 -5 6 -9 19 -9 29 0 10 -6 33 -14 50 -8 18 -17 39 -20 47 -7 16 -20 38 -51 85 -33 51 -117 145 -125 140 -4 -2 -22 9 -40 25 -58 52 -177 140 -188 140 -6 0 -9 6 -7 13 6 13 -23 32 -135 87 -92 46 -274 94 -355 94 -35 0 -65 6 -73 13 -15 15 -245 17 -297 3z"/>
 <path d="M1106 6945 c-3 -9 -6 -1152 -6 -2540 0 -2008 3 -2525 13 -2532 6 -4 41 -8 77 -9 81 -1 187 -19 206 -35 8 -6 42 -15 77 -19 86 -11 267 -45 497 -94 36 -8 101 -22 145 -31 44 -9 93 -21 108 -25 26 -9 29 -6 46 33 11 23 26 61 35 85 9 23 23 60 31 82 40 107 48 127 61 152 8 14 14 35 14 46 0 12 4 23 9 27 5 3 12 19 16 36 4 17 13 42 21 57 8 15 14 33 14 40 0 7 4 20 9 30 8 16 16 35 56 142 8 22 22 58 30 80 8 22 22 59 31 83 8 23 22 55 30 70 8 16 14 37 14 47 0 10 4 21 9 25 5 3 12 19 16 36 4 17 13 42 21 57 8 15 14 34 14 42 0 9 4 20 8 25 5 6 33 75 62 155 29 80 57 149 62 155 4 5 8 16 8 25 0 8 7 28 15 44 8 15 15 33 15 38 0 6 6 24 14 41 14 33 36 90 60 155 13 35 28 75 60 160 8 20 22 59 32 85 14 39 21 47 38 45 l21 -3 3 -1140 c1 -716 6 -1143 12 -1149 5 -5 26 -11 47 -12 55 -4 134 -19 166 -33 16 -6 37 -11 48 -11 11 0 27 -7 35 -15 9 -8 27 -15 40 -15 14 0 53 -6 87 -14 95 -22 213 -46 402 -80 299 -55 299 -55 315 -27 7 14 9 805 8 2530 -3 2259 -5 2512 -19 2526 -18 18 -142 41 -147 27 -3 -10 -22 -7 -242 34 -427 81 -740 152 -755 172 -16 21 -69 11 -73 -13 -2 -11 -10 -33 -17 -50 -7 -16 -15 -39 -18 -50 -3 -11 -22 -65 -42 -120 -20 -55 -40 -113 -45 -130 -9 -33 -29 -89 -41 -120 -5 -11 -25 -69 -44 -130 -20 -60 -40 -119 -45 -130 -4 -11 -18 -49 -30 -85 -12 -36 -26 -74 -30 -85 -5 -11 -25 -69 -45 -130 -19 -60 -39 -119 -44 -130 -13 -32 -32 -88 -41 -120 -9 -32 -28 -88 -41 -120 -17 -41 -41 -111 -46 -135 -3 -14 -9 -29 -13 -35 -4 -5 -18 -44 -30 -85 -12 -41 -26 -79 -31 -84 -5 -6 -9 -19 -9 -29 0 -10 -6 -33 -14 -50 -8 -18 -16 -41 -19 -52 -7 -26 -35 -105 -46 -130 -5 -11 -12 -31 -15 -45 -7 -35 -31 -64 -44 -56 -9 5 -12 299 -12 1151 l0 1145 -22 14 c-29 18 -129 39 -150 31 -8 -3 -48 1 -89 10 -222 47 -413 83 -609 115 -69 11 -139 22 -157 25 -17 3 -33 10 -35 16 -2 6 -22 13 -44 16 -33 4 -42 2 -48 -12z"/>
 <path d="M6865 6309 c-11 -4 -65 -8 -120 -8 -55 -1 -123 -7 -152 -15 -29 -8 -53 -10 -55 -5 -2 5 -29 5 -63 -1 -85 -13 -298 -30 -377 -30 -36 0 -68 -4 -70 -10 -4 -12 -218 -26 -218 -14 0 12 -344 5 -348 -7 -5 -11 -52 -12 -52 -1 0 12 -352 25 -359 14 -6 -10 -273 7 -436 27 -49 6 -108 13 -129 15 -21 3 -42 10 -46 17 -4 6 -25 12 -46 13 l-39 1 -3 -2542 -2 -2541 27 -6 c33 -6 153 -22 278 -36 197 -24 366 -32 730 -37 346 -4 394 -3 525 16 80 11 174 23 210 26 126 11 226 28 320 52 152 40 286 83 306 98 11 8 26 15 34 15 8 0 40 16 70 35 30 19 69 41 85 48 72 33 230 183 318 302 67 90 69 93 120 200 79 163 117 310 137 530 5 55 13 129 19 165 16 94 13 281 -4 380 -8 47 -15 100 -15 119 0 65 -51 194 -106 266 -75 98 -283 162 -556 173 -41 2 -48 5 -48 22 0 13 10 24 28 31 15 6 45 19 67 29 22 10 51 22 65 26 14 4 35 13 47 21 12 8 49 29 82 46 135 73 294 209 357 307 51 80 54 85 60 100 3 8 12 29 19 45 56 129 67 213 63 495 -2 124 1 295 5 380 5 85 10 186 12 225 1 39 8 71 14 73 17 6 14 234 -4 307 -8 33 -14 77 -15 99 0 42 -17 100 -64 219 -65 164 -202 269 -401 307 -74 14 -243 20 -270 9z m-860 -931 c122 -21 175 -62 212 -163 16 -46 18 -91 18 -530 0 -445 -1 -484 -19 -540 -42 -130 -69 -150 -281 -196 -151 -33 -181 -35 -189 -13 -8 21 -8 1439 0 1447 11 10 193 7 259 -5z m103 -2240 c57 -27 86 -69 108 -153 16 -60 18 -115 19 -387 0 -241 -3 -320 -12 -329 -7 -7 -13 -24 -13 -37 0 -13 -9 -42 -20 -65 -52 -111 -115 -143 -354 -177 -64 -10 -80 -9 -87 2 -5 7 -8 272 -6 588 l2 575 55 6 c100 11 261 -1 308 -23z"/>
 </g>

</svg>