<!DOCTYPE svg PUBLIC "-//W3C//DTD SVG 20010904//EN" "http://www.w3.org/TR/2001/REC-SVG-20010904/DTD/svg10.dtd">
<svg version="1.0" xmlns="http://www.w3.org/2000/svg" width="1089px" height="1200px" viewBox="0 0 10890 12000" preserveAspectRatio="xMidYMid meet">
<g id="layer101" fill="#0102ab" stroke="none">
<path d="M5455 10853 c-70 -6 -289 -34 -312 -40 -22 -5 -23 -9 -23 -119 l0 -113 -37 -6 c-21 -4 -60 -11 -86 -16 -26 -5 -52 -9 -57 -9 -6 0 -10 47 -10 110 0 99 -2 110 -18 110 -25 0 -266 -54 -507 -114 -33 -8 -80 -19 -105 -25 -25 -6 -62 -16 -82 -22 l-38 -12 -2 -161 c-4 -190 -3 -190 -102 -91 -75 76 -153 116 -269 140 -130 27 -352 18 -537 -20 -41 -9 -100 -21 -130 -27 -132 -27 -266 -86 -356 -156 -55 -43 -148 -170 -160 -219 -4 -12 -10 -23 -15 -23 -23 0 -74 50 -115 112 -71 107 -249 264 -359 318 -17 8 -37 19 -45 26 -27 21 -243 101 -320 119 -41 9 -88 21 -105 26 -92 27 -348 30 -446 5 -158 -41 -264 -136 -324 -291 -59 -154 -78 -457 -73 -1150 5 -559 16 -786 45 -885 43 -152 151 -325 267 -429 16 -14 53 -62 82 -107 205 -310 581 -506 974 -508 173 -1 295 38 426 138 146 112 206 250 234 544 8 72 17 132 21 132 4 0 28 -26 52 -57 92 -119 183 -184 310 -224 60 -18 94 -22 209 -21 120 1 151 5 255 32 232 62 440 190 568 351 29 36 56 59 73 62 15 3 35 9 45 12 15 7 17 -1 17 -81 0 -49 3 -100 7 -113 7 -27 6 -27 173 14 149 37 480 105 510 105 14 0 36 6 50 13 24 12 25 16 22 97 -3 80 -3 84 12 63 24 -33 161 -121 208 -133 122 -34 304 -27 417 14 24 9 45 16 47 16 2 0 4 -20 4 -44 0 -25 4 -47 9 -50 5 -4 57 -9 115 -13 l106 -6 0 -108 c0 -59 4 -110 8 -113 5 -3 64 -12 133 -21 147 -19 241 -35 447 -77 130 -26 155 -29 163 -17 5 8 9 89 9 182 l0 167 24 0 c20 0 25 -6 28 -32 3 -35 -4 -33 228 -88 74 -17 149 -36 165 -41 49 -15 320 -79 335 -79 10 0 12 20 7 98 -3 53 -8 105 -12 115 -16 40 14 12 55 -50 66 -102 172 -204 251 -241 36 -17 82 -34 102 -37 l37 -7 0 121 c0 66 2 121 5 121 3 0 34 -29 70 -64 82 -82 139 -121 234 -161 267 -111 602 -74 849 94 33 22 62 37 66 34 3 -4 6 -91 6 -195 0 -103 2 -188 5 -188 3 0 47 7 97 16 51 9 100 17 108 18 12 1 16 -18 18 -106 l3 -108 28 0 c15 0 41 4 57 9 16 5 63 17 104 26 213 47 566 139 572 149 4 6 7 661 5 1456 l-2 1445 -35 -1 c-29 -2 -74 -11 -170 -35 -13 -3 -15 14 -18 109 l-3 113 -32 -6 c-18 -4 -45 -11 -62 -16 -27 -8 -188 -46 -350 -83 -33 -8 -103 -22 -155 -31 -52 -10 -112 -22 -132 -27 l-38 -9 0 -154 c0 -87 -4 -156 -10 -160 -14 -9 -42 12 -78 61 -18 25 -61 65 -94 89 -161 117 -376 160 -758 152 -236 -4 -301 -16 -415 -73 -112 -57 -212 -205 -236 -350 -25 -159 -28 -219 -28 -638 -1 -327 -4 -437 -12 -429 -20 20 -28 228 -28 790 -1 517 -2 552 -18 557 -10 2 -52 12 -93 21 -111 24 -105 17 -108 138 -2 67 -7 109 -15 115 -7 6 -106 33 -222 61 -115 28 -226 56 -245 61 -59 16 -277 64 -385 84 -154 29 -246 38 -339 34 -80 -3 -102 -8 -160 -37 -47 -23 -78 -47 -106 -82 -21 -26 -40 -54 -42 -61 -2 -6 -10 -8 -16 -4 -8 5 -12 43 -12 117 l0 109 -187 -2 c-104 -1 -206 -3 -228 -5z m-3522 -1527 c39 -8 89 -18 110 -22 l37 -6 0 -102 c0 -55 4 -107 8 -114 12 -18 227 -57 390 -71 l77 -6 3 -107 c3 -124 15 -114 -113 -98 -161 20 -279 39 -505 85 -41 8 -76 15 -76 15 -1 0 -4 -145 -8 -322 -11 -606 -23 -461 -25 300 -1 549 2 749 12 799 12 63 12 58 15 -135 l2 -200 73 -16z"/>
<path d="M4645 7459 c-79 -7 -180 -25 -305 -54 -36 -8 -95 -21 -131 -29 -37 -7 -71 -16 -78 -20 -7 -5 -11 -60 -11 -170 l0 -164 -27 -5 c-88 -18 -223 -39 -328 -52 -66 -8 -134 -18 -152 -21 l-33 -6 0 -76 0 -75 -52 49 c-61 57 -110 89 -153 100 -16 4 -36 12 -44 18 -9 7 -71 11 -170 11 -147 0 -161 -2 -231 -28 -41 -16 -89 -37 -107 -48 -49 -30 -112 -107 -119 -145 -3 -19 -10 -34 -14 -34 -5 0 -18 19 -29 43 -30 61 -95 132 -160 176 -59 39 -121 71 -141 71 -6 0 -24 7 -40 15 -16 8 -53 21 -82 29 -29 8 -84 24 -123 36 -74 23 -571 150 -690 177 -161 36 -381 76 -425 77 l-35 1 -3 -1453 -2 -1452 22 -9 c13 -4 55 -14 93 -20 129 -22 115 -7 115 -125 0 -121 5 -130 77 -140 26 -4 62 -11 78 -16 17 -4 64 -16 105 -25 41 -9 192 -45 335 -81 360 -88 533 -117 655 -110 52 3 118 12 145 21 167 52 284 215 316 437 6 40 13 121 16 181 3 59 10 107 14 107 5 0 24 -21 42 -47 75 -111 208 -225 312 -269 97 -40 173 -54 302 -54 251 0 496 75 654 201 l39 31 0 -186 c0 -101 3 -187 8 -189 4 -2 55 8 114 23 l107 27 3 -111 c3 -127 -5 -119 103 -92 110 28 190 47 230 56 22 5 85 20 140 34 87 21 200 47 273 62 22 4 22 5 22 205 l0 201 -50 -7 c-28 -4 -74 -13 -103 -21 -79 -21 -78 -22 -75 43 3 49 6 58 23 61 11 1 52 9 90 18 39 8 80 17 93 20 22 4 22 6 22 170 0 193 -5 190 108 75 80 -81 171 -131 300 -164 76 -19 113 -22 297 -22 266 1 375 17 534 82 158 64 246 145 316 288 55 115 60 173 60 765 0 573 -7 691 -52 820 -46 134 -129 262 -223 341 -28 23 -77 80 -110 125 -147 202 -354 293 -635 281 -252 -11 -454 -82 -618 -219 l-48 -40 -16 21 c-28 40 -56 61 -116 83 -44 17 -65 32 -82 58 -39 61 -83 97 -142 118 -74 26 -110 30 -208 21z m-1558 -1957 l28 -22 -80 6 c-44 4 -81 7 -82 8 -1 1 1 27 4 59 l6 57 48 -42 c26 -24 60 -53 76 -66z m388 -169 c132 -49 126 -75 -20 -81 l-95 -4 0 54 c0 60 6 72 29 62 9 -3 48 -17 86 -31z m1035 -682 l0 -59 -42 -7 c-24 -4 -50 -11 -58 -15 -8 -4 -32 -10 -52 -14 l-38 -7 48 65 c38 53 55 67 92 79 25 8 46 15 48 16 1 1 2 -26 2 -58z"/>
<path d="M6235 4030 c-105 -16 -216 -72 -280 -141 l-40 -44 -3 78 c-2 42 -6 77 -10 77 -4 0 -88 -9 -187 -20 -212 -23 -409 -54 -512 -81 l-43 -12 0 -69 0 -69 -47 25 c-129 67 -209 84 -327 67 -176 -24 -332 -117 -442 -262 l-39 -50 -5 73 c-6 85 0 82 -130 54 -159 -35 -368 -70 -507 -86 -46 -5 -87 -12 -93 -15 -5 -3 -10 -38 -10 -76 l0 -71 -56 50 c-78 70 -139 99 -250 118 -82 15 -109 16 -196 6 -55 -7 -114 -18 -132 -26 -17 -8 -42 -18 -56 -22 -40 -11 -92 -48 -133 -93 l-37 -41 0 78 c0 47 -5 84 -12 94 -8 10 -43 20 -93 27 -124 17 -275 46 -445 86 -41 10 -90 19 -109 19 -30 1 -35 -3 -43 -29 -5 -16 -13 -39 -18 -50 -4 -11 -30 -89 -57 -174 l-48 -154 -5 113 -5 114 -85 22 c-47 13 -95 23 -107 23 -28 1 -32 18 -36 146 l-2 99 -55 12 c-53 12 -121 27 -260 59 -58 14 -160 34 -277 54 -23 4 -47 5 -53 1 -7 -4 -9 -457 -8 -1460 l3 -1454 90 -17 c50 -10 100 -18 113 -19 21 0 22 -3 22 -109 0 -122 1 -124 70 -140 25 -5 74 -17 110 -25 143 -32 327 -77 363 -88 20 -6 56 -12 78 -12 l42 -1 78 220 78 220 1 -126 c0 -89 4 -129 13 -136 14 -11 63 -25 155 -44 l62 -13 0 -101 c0 -66 4 -107 13 -117 12 -16 83 -33 257 -63 52 -9 120 -20 150 -26 30 -5 97 -12 148 -16 l92 -6 0 416 c0 245 4 417 9 417 5 0 30 -28 54 -63 61 -85 180 -181 278 -224 110 -49 158 -58 309 -57 241 1 434 56 610 175 65 43 189 172 221 229 19 34 28 40 56 40 18 0 33 -4 33 -9 0 -20 91 -108 137 -133 119 -65 294 -55 485 26 21 9 40 16 43 16 3 0 5 -61 5 -136 l0 -136 28 5 c15 3 65 12 112 21 47 9 86 16 88 16 1 0 2 -49 2 -110 0 -128 -13 -119 142 -96 179 28 264 36 435 42 l173 7 2 409 3 410 51 -64 c102 -127 279 -242 464 -302 192 -62 447 -100 610 -92 103 6 123 10 186 40 130 61 199 145 228 278 27 121 35 404 36 1209 0 586 -3 749 -12 756 -7 5 -49 18 -93 27 -44 10 -88 20 -97 23 -16 4 -18 18 -18 118 l0 113 -37 12 c-75 22 -151 40 -348 85 -38 8 -88 20 -110 25 -44 11 -149 30 -207 37 l-38 5 0 -78 0 -78 -25 35 c-43 58 -128 133 -181 161 -54 28 -181 59 -236 57 -18 -1 -55 -5 -83 -9z m9 -1443 l49 -37 -77 0 -76 0 0 62 0 62 28 -26 c15 -14 49 -41 76 -61z m400 -222 c95 -52 115 -70 98 -87 -9 -9 -35 -8 -104 3 l-93 14 -3 58 c-2 35 1 57 8 57 5 0 48 -20 94 -45z m-3591 -233 c26 -18 47 -34 47 -36 0 -4 -106 3 -147 10 l-33 5 0 70 0 71 43 -44 c23 -24 63 -58 90 -76z m397 -181 c76 -25 85 -31 88 -54 3 -26 2 -27 -55 -27 -32 0 -75 -3 -95 -6 l-38 -7 0 62 c0 33 3 61 8 61 4 0 45 -13 92 -29z"/>
</g>
<g id="layer102" fill="#113cc3" stroke="none">
<path d="M5465 10837 c-60 -5 -157 -16 -215 -26 l-105 -16 -5 -965 c-4 -740 -8 -972 -17 -993 -18 -40 -94 -73 -142 -61 -28 7 -40 18 -56 49 -20 39 -20 62 -22 979 -1 516 -4 940 -6 942 -5 5 -80 -8 -179 -31 -38 -8 -96 -22 -130 -30 -62 -14 -125 -29 -250 -61 -35 -8 -75 -18 -90 -21 -15 -3 -34 -13 -44 -24 -15 -17 -16 -39 -8 -251 5 -132 6 -266 1 -308 -11 -93 -1 -1770 11 -1782 4 -4 116 19 247 51 132 33 289 70 349 82 l108 23 -4 103 c-3 57 -1 103 3 103 4 0 32 -24 61 -53 30 -29 85 -68 124 -87 69 -35 69 -35 204 -34 103 0 148 5 190 19 75 25 149 61 184 90 l29 24 7 178 7 178 1 -162 c2 -157 8 -186 31 -146 5 10 13 14 17 10 4 -4 -5 -20 -19 -35 -15 -16 -27 -31 -27 -35 0 -3 35 -7 78 -9 l77 -3 3 -182 2 -183 30 0 c17 0 30 -5 30 -11 0 -7 20 -8 63 -4 65 7 229 -10 437 -46 63 -10 121 -19 128 -19 9 0 12 43 12 181 l0 182 39 -7 39 -6 7 76 c4 42 4 122 -1 178 -9 100 -9 101 -36 104 -14 2 -32 9 -38 17 -17 20 -9 1479 7 1518 9 18 20 27 36 27 22 0 25 6 31 53 11 96 7 314 -6 324 -34 25 -296 63 -433 63 -145 0 -234 -50 -297 -167 -47 -86 -51 -162 -55 -978 -4 -744 -5 -777 -35 -759 -4 3 -3 14 3 26 8 14 10 294 9 957 -2 515 -5 944 -7 954 -4 17 -16 18 -136 15 -73 -1 -181 -7 -242 -11z m-1248 -924 c-3 -10 -5 -2 -5 17 0 19 2 27 5 18 2 -10 2 -26 0 -35z"/>
<path d="M6685 10732 c-3 -3 -5 -88 -5 -188 0 -164 2 -184 18 -193 16 -10 16 -10 -1 -11 -16 0 -17 -51 -17 -954 0 -896 1 -955 18 -959 16 -4 16 -5 0 -6 -11 -1 -18 -9 -18 -21 0 -14 10 -22 38 -28 472 -115 658 -160 660 -157 4 4 -17 247 -24 273 -4 15 -2 22 7 22 8 0 27 -28 44 -62 39 -82 128 -201 194 -260 50 -45 164 -108 196 -108 13 0 15 22 15 136 0 74 -5 144 -10 155 -9 16 -7 19 10 19 13 0 20 -7 20 -18 0 -46 119 -179 226 -252 50 -35 162 -84 244 -107 74 -21 361 -24 445 -4 33 7 96 31 141 52 136 66 218 132 291 236 73 104 109 185 121 278 16 119 25 -181 18 -607 l-6 -408 29 0 c16 0 42 5 58 11 15 5 97 25 183 44 181 39 437 102 451 110 11 7 13 2872 2 2878 -5 3 -39 -3 -78 -13 -38 -9 -133 -31 -210 -49 -77 -17 -156 -36 -175 -41 -33 -9 -100 -22 -195 -39 -71 -12 -67 2 -61 -260 4 -130 3 -261 -2 -291 l-8 -55 -8 73 c-9 90 -23 125 -94 231 -76 114 -159 173 -312 224 -116 38 -486 61 -675 41 -199 -20 -291 -57 -374 -151 -132 -148 -156 -298 -149 -940 3 -297 7 -385 17 -397 9 -11 10 -16 2 -16 -7 0 -12 -33 -13 -97 0 -54 -3 -82 -4 -63 -2 19 -9 65 -14 101 l-11 66 -57 23 c-62 26 -157 112 -187 169 -32 64 -39 191 -40 824 -1 353 -6 622 -11 627 -5 5 -41 16 -79 25 -67 15 -124 29 -245 60 -103 26 -195 47 -220 50 -14 2 -51 10 -82 18 -32 8 -60 12 -63 9z m1886 -722 c10 -6 27 -25 36 -43 17 -30 18 -84 18 -762 0 -678 -1 -732 -18 -762 -22 -40 -45 -53 -96 -53 -50 0 -84 29 -100 88 -17 60 -17 1390 0 1456 7 28 22 54 37 66 27 22 91 27 123 10z m756 -207 c-3 -10 -5 -2 -5 17 0 19 2 27 5 18 2 -10 2 -26 0 -35z m-2562 -1393 c18 -8 17 -9 -7 -9 -15 -1 -30 4 -33 9 -7 12 12 12 40 0z"/>
<path d="M1279 10640 c-8 -4 -31 -11 -53 -14 -110 -20 -230 -112 -283 -217 -41 -81 -57 -144 -78 -294 -14 -105 -16 -214 -12 -895 3 -647 7 -787 19 -845 16 -72 35 -132 48 -150 4 -5 11 -21 15 -34 13 -41 84 -152 138 -214 69 -79 241 -206 357 -263 132 -65 244 -101 390 -125 268 -44 465 4 611 150 71 72 100 122 128 227 31 112 54 351 49 499 -3 72 -2 119 2 105 5 -14 8 -40 9 -58 1 -18 5 -40 10 -50 5 -9 17 -39 27 -67 58 -168 216 -311 399 -360 90 -25 283 -25 405 -1 330 65 582 272 705 580 13 33 15 134 15 778 l0 739 -31 62 c-74 150 -173 232 -326 271 -71 19 -260 22 -373 7 -253 -34 -283 -40 -390 -73 -234 -72 -358 -184 -426 -384 -13 -38 -33 -162 -31 -196 1 -41 -4 -78 -12 -78 -5 0 -11 35 -14 78 -6 107 -21 162 -73 267 -46 93 -119 179 -229 270 -86 72 -183 128 -330 190 -54 22 -218 64 -300 76 -44 6 -84 15 -90 19 -13 10 -258 10 -276 0z m491 -526 c97 -52 117 -146 106 -515 l-7 -235 38 -12 c21 -7 47 -12 58 -11 11 1 85 -11 165 -25 225 -40 259 -45 348 -52 l82 -7 0 37 c0 46 18 47 22 1 4 -47 21 -45 29 2 6 36 6 35 8 -14 1 -43 -2 -51 -14 -47 -8 3 -17 0 -19 -7 -9 -29 -13 -427 -4 -443 11 -20 1 -40 -15 -28 -14 11 -54 19 -200 37 -122 16 -240 36 -357 61 -41 8 -88 16 -105 17 l-30 2 -1 -320 c-1 -476 -5 -491 -114 -483 -44 3 -67 11 -94 32 -46 35 -62 66 -70 142 -10 89 -7 1751 3 1802 5 23 16 51 26 62 28 31 91 33 145 4z m1697 -69 c47 -33 48 -45 48 -790 0 -648 -1 -704 -18 -752 -14 -40 -25 -55 -52 -67 -78 -38 -137 -7 -152 80 -4 27 -8 351 -8 719 0 706 3 752 45 790 18 16 64 32 100 34 9 1 25 -6 37 -14z m-850 -517 c-2 -18 -4 -6 -4 27 0 33 2 48 4 33 2 -15 2 -42 0 -60z m-30 -890 c-2 -18 -4 -4 -4 32 0 36 2 50 4 33 2 -18 2 -48 0 -65z"/>
<path d="M4590 7438 c-14 -4 -115 -26 -225 -49 -110 -23 -206 -47 -213 -52 -10 -8 -13 -50 -12 -166 1 -207 2 -199 -9 -182 -8 12 -21 12 -88 2 -151 -25 -259 -41 -343 -51 -46 -6 -88 -16 -92 -23 -4 -7 -8 -54 -8 -105 l0 -94 -35 46 c-101 133 -209 181 -420 187 -67 2 -179 -15 -200 -30 -5 -4 -29 -13 -52 -19 -52 -15 -137 -91 -164 -146 -11 -22 -22 -67 -26 -99 -3 -32 -10 -60 -14 -63 -5 -3 -10 -121 -11 -262 l-3 -257 -3 245 c-2 152 1 259 8 281 8 29 7 45 -6 75 -25 62 -46 109 -53 114 -4 3 -21 24 -39 47 -32 41 -141 123 -163 123 -6 0 -23 7 -37 14 -71 39 -637 195 -957 265 -55 12 -116 26 -135 31 -19 4 -55 11 -80 15 -25 3 -58 10 -75 15 -16 5 -56 11 -88 15 l-57 6 2 -1448 3 -1448 75 -6 c41 -4 122 -17 180 -29 58 -12 123 -26 146 -30 22 -5 107 -25 190 -45 82 -20 197 -45 256 -56 60 -10 134 -26 165 -34 89 -23 296 -21 361 3 117 45 208 145 251 275 25 75 51 272 51 380 0 99 -26 255 -52 314 -38 85 -111 148 -265 228 -72 38 -89 55 -55 55 64 1 173 24 221 45 88 41 132 92 164 190 16 48 34 170 28 189 -6 23 -11 70 -5 59 3 -7 12 -13 20 -13 8 0 14 -9 14 -20 0 -12 6 -33 14 -48 28 -54 201 -175 331 -231 28 -12 59 -26 70 -31 11 -5 61 -25 110 -45 184 -74 283 -122 295 -145 39 -72 33 -403 -7 -459 -28 -38 -87 -64 -127 -57 -72 14 -86 68 -86 334 l0 199 -207 6 c-115 4 -259 13 -322 22 -62 8 -117 12 -122 9 -12 -7 -11 -238 1 -326 32 -220 70 -308 179 -418 126 -126 238 -184 424 -218 71 -14 330 2 396 24 25 8 52 14 61 14 15 0 35 8 156 66 109 53 235 179 294 294 37 75 55 142 74 290 15 109 17 227 14 925 -2 470 -7 808 -12 820 -9 18 -8 19 7 6 16 -12 17 -98 19 -1140 l3 -1126 35 2 c19 1 172 36 340 77 168 42 315 78 328 81 l22 5 0 235 c0 155 4 235 10 235 6 0 13 -8 16 -17 81 -257 288 -380 620 -368 277 10 466 51 639 138 113 58 164 104 228 204 95 150 107 239 107 824 0 463 -12 657 -47 784 -28 102 -101 231 -176 310 -80 87 -180 141 -322 176 -78 18 -108 21 -225 16 -142 -6 -233 -20 -288 -43 -18 -8 -39 -14 -46 -14 -16 0 -146 -61 -197 -93 -41 -25 -151 -142 -191 -202 -23 -35 -66 -121 -89 -180 -15 -38 -29 -126 -29 -182 0 -31 -3 -53 -7 -50 -3 4 -7 125 -8 269 -3 291 -11 342 -65 417 -17 22 -30 45 -30 51 0 13 -64 45 -132 65 -57 16 -158 18 -208 3z m1313 -470 c45 -45 49 -110 44 -818 -2 -396 -8 -675 -14 -704 -12 -58 -36 -81 -92 -91 -56 -9 -94 13 -110 65 -15 52 -17 1421 -1 1479 10 37 40 73 70 84 36 13 82 6 103 -15z m-4098 -313 c62 -20 102 -43 129 -75 47 -57 51 -85 51 -385 0 -370 -2 -374 -159 -359 -117 11 -106 -34 -106 428 0 221 3 406 7 410 4 3 14 4 22 0 9 -3 34 -12 56 -19z m1729 -115 c16 -6 29 -22 37 -47 16 -50 25 -681 11 -695 -19 -19 -167 106 -200 169 -43 79 -57 369 -24 488 15 51 22 63 52 77 39 20 86 23 124 8z m1505 -1132 c0 -50 -3 -67 -9 -53 -15 34 -10 125 6 125 2 0 4 -33 3 -72z m-3254 -2 c115 -32 165 -71 184 -144 16 -62 23 -311 12 -390 -19 -124 -49 -148 -173 -130 -40 5 -76 15 -80 21 -15 24 -9 659 6 657 1 0 24 -6 51 -14z"/>
<path d="M4960 4679 c-19 -4 -172 -42 -339 -84 -168 -41 -308 -81 -313 -87 -4 -7 -8 -89 -8 -182 l0 -169 51 6 c28 4 56 10 63 15 6 5 117 35 246 67 129 32 264 65 300 75 l65 17 3 177 c3 196 8 184 -68 165z"/>
<path d="M6238 4015 c-3 -4 -25 -11 -48 -16 -79 -18 -163 -65 -218 -123 -43 -45 -55 -65 -65 -111 -6 -30 -15 -55 -20 -55 -5 0 -6 12 -2 28 4 15 9 70 12 123 4 73 2 98 -9 106 -21 18 -289 -9 -528 -52 -47 -9 -101 -18 -120 -21 -50 -8 -60 -27 -60 -111 0 -40 -2 -73 -4 -73 -3 0 -24 13 -48 29 -83 56 -173 85 -268 85 -164 2 -315 -61 -436 -178 -68 -68 -133 -163 -135 -198 -1 -13 -4 -34 -9 -48 -4 -14 -5 36 -2 111 3 88 1 138 -5 142 -6 4 -33 2 -59 -4 -213 -45 -327 -65 -478 -84 -66 -8 -126 -17 -133 -19 -10 -4 -13 -33 -13 -111 0 -83 -3 -105 -14 -105 -8 0 -16 10 -20 23 -3 13 -38 55 -79 94 -99 95 -157 115 -343 116 -128 0 -133 -1 -227 -37 -83 -32 -103 -44 -146 -92 -53 -58 -66 -89 -77 -191 -4 -35 -11 -63 -16 -63 -6 0 -8 12 -4 28 10 41 20 306 12 335 -6 26 -6 26 -161 52 -44 8 -114 20 -155 29 -67 13 -104 21 -255 56 -82 19 -78 23 -123 -117 -23 -71 -44 -141 -47 -158 -4 -16 -10 -41 -15 -55 -5 -14 -32 -99 -61 -190 -28 -91 -68 -217 -89 -280 -21 -63 -52 -160 -69 -215 -49 -151 -63 -185 -73 -179 -6 4 -9 248 -8 648 1 352 1 646 1 652 -1 7 -31 19 -68 29 -38 9 -84 21 -103 26 -19 5 -57 14 -85 20 -27 5 -81 17 -120 24 -119 25 -179 35 -207 35 l-28 0 0 -1439 c0 -922 3 -1442 10 -1446 5 -3 49 -10 97 -16 48 -5 104 -14 123 -19 19 -5 67 -16 105 -24 39 -8 108 -24 155 -35 47 -11 93 -21 103 -23 21 -3 13 -21 132 317 37 105 87 246 112 315 24 69 55 157 68 195 48 141 114 325 123 341 6 11 12 13 16 6 4 -6 6 -301 6 -657 l0 -645 21 0 c11 0 28 -4 38 -9 9 -5 41 -12 71 -15 30 -2 87 -11 125 -20 129 -28 231 -46 293 -52 l62 -7 2 474 c0 261 1 479 1 484 0 6 -3 40 -7 78 -3 37 -3 67 2 67 5 0 12 -35 15 -77 11 -135 64 -256 154 -349 90 -93 195 -162 298 -194 22 -7 50 -17 63 -21 44 -17 225 -22 332 -10 136 16 224 41 336 95 208 100 374 331 374 519 0 91 12 60 16 -40 3 -108 25 -194 60 -240 70 -92 215 -139 351 -114 184 34 299 94 436 228 31 31 57 59 57 63 0 5 7 11 16 14 16 6 17 -20 12 -335 l-6 -341 52 7 c28 4 53 11 56 15 3 4 21 10 40 13 19 3 80 13 135 22 55 9 172 24 260 33 l160 17 0 460 c0 253 -3 483 -6 510 -4 28 -5 41 -2 30 2 -11 8 -29 13 -40 4 -11 11 -32 14 -46 14 -63 53 -128 115 -189 110 -110 242 -185 405 -231 97 -27 370 -69 486 -73 276 -12 458 87 516 280 7 25 21 134 29 243 13 159 15 342 13 966 l-3 770 -70 18 c-271 70 -577 132 -602 123 -10 -4 -13 -31 -13 -103 l0 -98 -39 60 c-78 123 -191 210 -296 228 -75 12 -199 20 -207 12z m-381 -792 c-1 -71 -3 -13 -3 127 0 140 2 198 3 128 2 -71 2 -185 0 -255z m853 335 c29 -19 39 -44 50 -129 12 -97 13 -608 2 -627 -6 -9 -27 6 -74 50 -142 137 -172 223 -166 471 5 168 18 223 58 244 27 15 100 9 130 -9z m-1579 -78 c10 -6 27 -25 36 -43 17 -30 18 -84 18 -752 l0 -720 -22 -41 c-27 -50 -76 -76 -136 -72 -37 3 -44 7 -59 38 -17 32 -18 89 -18 750 1 753 1 762 46 811 29 32 100 47 135 29z m-874 -167 c-3 -10 -5 -2 -5 17 0 19 2 27 5 18 2 -10 2 -26 0 -35z m-1600 -480 c-1 -65 -3 -14 -3 112 0 127 2 180 3 118 2 -62 2 -165 0 -230z m877 307 c29 -28 34 -94 35 -427 1 -255 -1 -303 -13 -303 -21 0 -127 88 -163 134 -57 74 -67 121 -68 311 0 237 17 289 103 306 48 9 82 3 106 -21z m2362 -147 c8 -8 14 -23 14 -33 0 -49 122 -135 318 -227 312 -145 472 -236 505 -286 27 -42 40 -178 29 -315 -11 -133 -23 -165 -70 -183 -56 -22 -143 16 -157 68 -4 16 -10 129 -14 253 l-6 225 -120 12 c-66 7 -201 12 -300 10 l-180 -2 -5 -67 c-7 -91 -20 -97 -20 -9 0 54 -3 72 -12 69 -10 -3 -14 -50 -18 -169 -3 -90 -7 -139 -8 -108 -1 31 -5 110 -8 175 l-7 119 28 13 27 12 -5 218 c-3 119 -8 231 -10 247 -2 17 -2 21 0 11 3 -11 11 -26 19 -33z m-3213 -347 c8 -77 49 -157 109 -211 69 -62 212 -146 333 -195 401 -164 409 -168 425 -213 31 -85 20 -387 -16 -442 -37 -57 -122 -73 -170 -31 -35 30 -42 80 -43 324 l-1 182 -112 0 c-62 0 -187 7 -278 15 -91 8 -181 16 -200 17 l-35 3 -6 -55 -6 -55 -1 48 c-1 26 -6 47 -12 47 -5 0 -11 -57 -13 -137 l-3 -138 -2 161 c-1 103 2 164 9 171 7 7 9 101 7 291 -3 265 2 340 15 218z"/>
</g>
<g id="layer103" fill="#2fa5ef" stroke="none">
<path d="M5555 10830 c-173 -10 -384 -37 -402 -52 -11 -8 -13 -188 -14 -947 0 -686 -4 -947 -12 -976 -10 -33 -20 -44 -60 -64 -68 -34 -114 -23 -142 34 -20 39 -20 63 -23 970 -2 512 -6 933 -10 937 -10 10 -607 -125 -669 -152 -23 -9 -23 -11 -23 -217 0 -145 6 -261 21 -387 19 -165 20 -225 17 -676 -3 -385 -7 -502 -17 -525 -16 -36 -29 -521 -14 -536 5 -5 102 14 248 50 132 33 289 70 349 82 l108 23 -4 103 c-3 57 -1 103 3 103 4 0 32 -24 61 -53 79 -77 169 -118 272 -124 157 -9 313 28 413 100 l43 30 2 181 3 181 68 3 67 3 -2 957 -3 957 -70 1 c-38 1 -133 -2 -210 -6z"/>
<path d="M6167 10789 c-107 -16 -194 -73 -240 -158 -25 -44 -29 -67 -37 -183 -5 -73 -9 -448 -10 -833 0 -627 -2 -703 -16 -723 -9 -13 -20 -56 -25 -97 -12 -92 -30 -137 -80 -197 -21 -26 -39 -49 -39 -52 0 -3 35 -6 78 -8 l77 -3 3 -181 2 -182 98 -6 c130 -10 322 -33 462 -57 63 -10 121 -19 128 -19 9 0 12 43 12 181 l0 182 40 -7 40 -6 -2 177 -3 178 -27 3 c-14 2 -32 9 -38 17 -17 20 -9 1479 7 1518 9 19 20 27 38 27 l25 0 -2 187 -3 187 -60 12 c-33 7 -117 20 -188 29 -70 8 -139 17 -155 19 -15 3 -53 0 -85 -5z"/>
<path d="M6680 10542 c0 -162 2 -182 18 -191 16 -10 16 -10 -1 -11 -16 0 -17 -51 -17 -954 0 -896 1 -955 18 -959 16 -4 16 -5 0 -6 -11 -1 -18 -9 -18 -21 0 -14 10 -22 38 -28 20 -5 172 -42 337 -82 165 -40 306 -75 313 -78 10 -3 12 15 7 89 -4 52 -11 119 -16 148 -14 82 3 82 45 -1 80 -156 197 -284 311 -337 99 -47 95 -52 95 105 0 125 -2 139 -24 177 -21 37 -35 75 -76 212 -5 17 -14 82 -20 145 -17 182 -13 174 -78 200 -62 26 -157 112 -187 170 -31 59 -37 183 -42 817 l-4 622 -32 9 c-18 5 -139 35 -270 68 -203 49 -240 56 -248 44 -5 -9 -9 -89 -8 -185 2 -125 -1 -170 -9 -169 -7 1 -24 2 -39 4 l-28 2 30 7 30 6 3 172 c3 195 7 185 -80 198 l-48 7 0 -180z m108 -1770 c9 -12 12 -62 10 -192 l-3 -175 -29 -3 c-16 -2 -33 1 -39 7 -8 8 -2 11 21 11 l32 0 0 158 c0 177 -4 202 -31 202 -11 0 -19 5 -19 11 0 15 42 1 58 -19z"/>
<path d="M1300 10633 c-19 -2 -57 -11 -85 -20 -242 -77 -322 -219 -355 -633 -15 -179 -8 -1377 8 -1520 50 -438 430 -785 952 -871 268 -44 465 4 611 150 102 103 136 193 164 443 20 181 14 307 -26 524 l-10 52 -57 6 c-187 22 -532 80 -604 102 -17 5 -18 -14 -18 -300 0 -332 -10 -441 -43 -476 -29 -32 -121 -25 -171 14 -46 35 -62 66 -70 142 -10 89 -7 1751 3 1802 5 23 16 51 25 61 50 55 185 13 220 -69 27 -62 36 -173 36 -428 l0 -249 58 -11 c64 -13 305 -56 397 -71 33 -6 97 -13 142 -17 l82 -7 5 269 c4 148 7 292 8 319 1 66 -16 134 -59 224 -28 59 -55 94 -141 181 -59 59 -135 126 -168 148 -67 45 -215 122 -234 122 -7 0 -24 6 -38 14 -29 15 -172 55 -292 80 -73 16 -271 27 -340 19z"/>
<path d="M9895 10564 c-121 -31 -452 -104 -538 -119 l-38 -6 4 -277 c2 -152 10 -317 16 -366 17 -120 10 -1134 -7 -1186 -9 -25 -12 -177 -12 -538 l0 -504 53 7 c104 14 632 134 658 150 11 7 12 2844 1 2861 -5 7 -47 0 -137 -22z"/>
<path d="M3515 10469 c-22 -4 -96 -15 -165 -24 -119 -15 -272 -47 -315 -65 -11 -5 -42 -16 -70 -26 -57 -20 -146 -73 -189 -113 -43 -39 -121 -162 -140 -220 -17 -53 -38 -190 -31 -202 9 -13 25 -484 19 -535 -5 -39 -10 -51 -23 -50 -14 1 -16 -21 -19 -194 -3 -210 1 -260 22 -260 22 0 26 -24 26 -171 0 -115 4 -151 21 -201 60 -178 216 -322 404 -373 90 -25 283 -25 405 -1 330 65 582 272 705 580 13 33 15 134 15 777 l0 739 -32 67 c-69 141 -209 241 -370 263 -103 14 -216 18 -263 9z m-48 -424 c47 -33 48 -45 48 -790 0 -648 -1 -704 -18 -752 -14 -40 -25 -55 -52 -67 -78 -38 -137 -7 -152 80 -4 27 -8 351 -8 719 0 706 3 752 45 790 18 16 64 32 100 34 9 1 25 -6 37 -14z"/>
<path d="M8290 10423 c-221 -25 -283 -41 -366 -89 -70 -41 -148 -144 -179 -238 -33 -99 -39 -191 -42 -670 -3 -350 0 -482 8 -492 9 -11 9 -14 -1 -14 -21 0 2 -258 31 -349 29 -92 52 -152 60 -157 5 -3 9 101 9 234 l0 240 -22 7 c-13 3 -18 9 -11 11 7 3 21 0 32 -6 20 -10 21 -19 21 -279 l0 -268 31 -46 c34 -51 126 -140 195 -187 50 -35 162 -84 244 -107 74 -21 361 -24 445 -4 106 24 252 102 348 188 39 34 121 147 149 203 50 103 48 61 48 859 l0 746 -30 58 c-127 252 -342 350 -780 359 -91 2 -176 3 -190 1z m281 -413 c10 -6 27 -25 36 -43 17 -30 18 -84 18 -762 0 -678 -1 -732 -18 -762 -22 -40 -45 -53 -96 -53 -50 0 -84 29 -100 88 -17 60 -17 1390 0 1456 7 28 22 54 37 66 27 22 91 27 123 10z"/>
<path d="M4207 9683 c-9 -93 -6 -661 3 -698 4 -16 8 149 9 368 0 218 -1 397 -3 397 -2 0 -6 -30 -9 -67z"/>
<path d="M9325 9225 c0 -258 1 -366 2 -238 2 127 2 339 0 470 -1 131 -2 27 -2 -232z"/>
<path d="M2585 9670 c-10 -27 -1 -415 10 -415 13 0 19 390 6 413 -8 15 -10 15 -16 2z"/>
<path d="M5720 8740 c0 -83 4 -150 9 -150 13 0 71 90 77 120 3 14 9 41 14 61 6 20 10 55 10 78 l0 41 -55 0 -55 0 0 -150z"/>
<path d="M2597 8753 c-11 -10 -8 -101 3 -108 6 -4 10 17 10 54 0 62 -1 66 -13 54z"/>
<path d="M4620 7430 c-53 -7 -113 -19 -270 -55 -41 -9 -101 -23 -133 -30 -32 -7 -60 -15 -63 -17 -2 -3 -3 -72 -2 -155 l3 -149 70 12 c39 6 74 9 79 6 5 -3 7 -495 5 -1176 l-4 -1171 35 2 c19 1 172 36 340 77 168 42 316 78 328 81 l24 6 -5 267 c-3 192 -8 278 -18 307 -21 61 -20 1156 1 1235 21 77 18 476 -4 551 -49 163 -181 235 -386 209z"/>
<path d="M5735 7376 c-55 -8 -116 -20 -135 -27 -93 -33 -168 -65 -202 -86 -21 -13 -41 -23 -46 -23 -4 0 -40 -30 -80 -66 -78 -71 -124 -135 -168 -229 -15 -33 -32 -71 -38 -84 -8 -17 -11 -256 -11 -795 l0 -771 31 -65 c93 -196 299 -296 590 -285 277 10 466 51 639 138 113 58 164 104 228 204 95 150 107 239 107 824 0 685 -22 825 -163 1016 -83 112 -202 195 -337 235 -85 25 -281 32 -415 14z m168 -408 c45 -45 49 -110 44 -818 -2 -396 -8 -675 -14 -704 -12 -58 -36 -81 -92 -91 -56 -9 -94 13 -110 65 -15 52 -17 1421 -1 1479 10 37 40 73 70 84 36 13 82 6 103 -15z"/>
<path d="M997 7303 c-4 -3 -7 -649 -7 -1434 l0 -1427 48 -10 c26 -6 85 -18 132 -27 114 -21 203 -40 400 -87 91 -22 213 -48 272 -59 60 -10 134 -26 165 -34 89 -23 296 -21 361 3 117 45 208 145 251 275 25 75 51 272 51 380 0 99 -26 255 -52 314 -38 85 -111 148 -265 228 -72 38 -89 55 -55 55 64 1 173 24 221 45 114 53 159 124 185 291 11 73 10 86 -6 135 -30 87 -41 243 -33 464 3 110 7 212 7 227 1 44 -49 137 -109 200 -67 69 -129 107 -237 143 -43 14 -86 30 -95 35 -9 5 -50 16 -91 25 -41 10 -88 21 -105 26 -198 57 -270 76 -451 119 -184 43 -432 95 -545 114 -19 4 -38 3 -42 -1z m808 -648 c62 -20 102 -43 129 -75 47 -57 51 -85 51 -385 0 -370 -2 -374 -159 -359 -117 11 -106 -34 -106 428 0 221 3 406 7 410 4 3 14 4 22 0 9 -3 34 -12 56 -19z m-20 -1249 c115 -32 165 -71 184 -144 16 -62 23 -311 12 -390 -19 -124 -49 -148 -173 -130 -40 5 -76 15 -80 21 -15 24 -9 659 6 657 1 0 24 -6 51 -14z"/>
<path d="M4193 7017 c-71 -17 -55 -37 27 -34 65 2 70 3 70 24 0 26 -23 28 -97 10z"/>
<path d="M4010 6974 c-41 -8 -147 -25 -235 -37 l-160 -22 -3 -103 c-1 -57 -7 -102 -11 -100 -5 2 -24 23 -42 48 -52 67 -128 124 -209 155 -69 26 -77 27 -208 22 -251 -10 -374 -78 -422 -234 -20 -66 -20 -72 -5 -133 12 -48 17 -142 21 -360 3 -165 10 -307 16 -322 19 -52 197 -178 333 -237 28 -12 59 -26 70 -31 11 -5 61 -25 110 -45 184 -74 283 -122 295 -145 39 -72 33 -403 -7 -459 -28 -38 -87 -64 -127 -57 -72 14 -86 68 -86 334 l0 199 -207 6 c-115 4 -259 13 -322 22 -62 8 -117 12 -122 9 -12 -7 -11 -238 1 -326 32 -220 70 -308 179 -418 126 -126 238 -184 424 -218 71 -14 330 2 396 24 25 8 52 14 61 14 15 0 35 8 156 66 149 72 290 241 337 405 37 125 49 441 45 1178 -3 603 -5 700 -18 726 -17 31 -19 32 -94 21 -43 -7 -48 -5 -53 13 -6 24 -11 24 -113 5z m-476 -434 c16 -6 29 -22 37 -47 16 -50 25 -681 11 -695 -19 -19 -167 106 -200 169 -43 79 -57 369 -24 488 15 51 22 63 52 77 39 20 86 23 124 8z"/>
<path d="M5025 6055 c0 -308 1 -435 2 -283 2 152 2 404 0 560 -1 156 -2 31 -2 -277z"/>
<path d="M2687 6535 c-19 -110 0 -514 25 -540 12 -13 3 495 -9 545 l-9 35 -7 -40z"/>
<path d="M4960 4679 c-19 -4 -172 -42 -339 -84 -168 -41 -308 -80 -312 -87 -7 -12 -2 -309 6 -335 3 -8 13 -9 37 -3 18 5 148 37 288 71 140 34 284 69 320 79 l65 17 3 177 c3 196 8 184 -68 165z"/>
<path d="M6225 4003 c-126 -29 -237 -100 -291 -185 l-24 -38 0 -419 0 -420 38 -39 c43 -45 142 -104 280 -169 312 -145 472 -236 505 -286 27 -42 40 -178 29 -315 -11 -133 -23 -165 -70 -183 -56 -22 -143 16 -157 68 -4 16 -10 129 -14 253 l-6 225 -120 12 c-66 7 -201 12 -300 10 l-180 -2 -3 -266 c-3 -315 -1 -322 107 -429 110 -110 242 -185 405 -231 97 -27 370 -69 486 -73 279 -12 467 93 519 290 31 116 41 407 41 1174 0 421 -4 770 -8 776 -12 19 -644 160 -663 148 -5 -3 -9 -48 -9 -100 0 -107 -12 -121 -44 -51 -31 67 -138 171 -214 208 -83 40 -229 60 -307 42z m485 -445 c29 -19 39 -44 50 -129 12 -97 13 -608 2 -627 -6 -9 -27 6 -74 50 -142 137 -172 223 -166 471 5 168 18 223 58 244 27 15 100 9 130 -9z"/>
<path d="M5815 3963 c-203 -17 -553 -71 -602 -93 -21 -9 -23 -16 -23 -90 0 -50 -4 -80 -11 -80 -6 0 -30 14 -55 30 -182 126 -432 111 -629 -38 -66 -50 -147 -140 -182 -202 l-23 -41 -1 -642 c0 -353 -5 -721 -10 -817 -6 -96 -12 -218 -15 -270 -6 -111 11 -193 52 -247 70 -92 215 -139 351 -114 203 37 343 118 488 282 l30 34 3 -337 c1 -186 6 -338 10 -338 4 0 45 7 92 15 207 36 285 48 435 63 l160 17 3 434 c2 368 0 444 -13 495 -21 79 -34 230 -35 382 0 119 0 121 25 132 l25 12 0 187 c0 158 -4 200 -21 263 -38 139 -37 640 2 712 17 33 25 224 9 243 -7 8 -15 14 -19 13 -3 -1 -24 -3 -46 -5z m-684 -483 c10 -6 27 -25 36 -43 17 -30 18 -84 18 -752 l0 -720 -22 -41 c-27 -50 -76 -76 -136 -72 -37 3 -44 7 -59 38 -17 32 -18 89 -18 750 1 753 1 762 46 811 29 32 100 47 135 29z"/>
<path d="M1015 3898 c-3 -7 -4 -652 -3 -1433 l3 -1419 35 -8 c19 -5 69 -15 110 -23 132 -26 264 -55 403 -89 66 -16 55 -26 95 89 27 79 128 366 187 530 25 72 55 157 66 190 20 59 58 166 106 298 22 60 43 87 43 55 -3 -196 7 -1278 12 -1283 4 -4 33 -13 65 -20 288 -63 391 -83 472 -91 l62 -7 -5 519 c-4 285 -9 607 -12 713 -4 140 -2 201 6 217 9 16 10 89 5 280 -10 353 -10 765 0 966 6 139 5 168 -6 173 -8 3 -67 14 -133 25 -65 11 -202 38 -304 61 -101 22 -188 37 -192 32 -6 -7 -74 -213 -193 -583 -16 -52 -47 -147 -67 -210 -21 -63 -52 -160 -69 -215 -48 -148 -63 -185 -72 -179 -5 3 -9 294 -9 650 l0 644 -22 10 c-42 18 -518 120 -559 120 -11 0 -22 -6 -24 -12z"/>
<path d="M5872 3588 c-16 -109 -14 -382 3 -483 12 -75 13 -59 14 243 0 177 -1 322 -2 322 -2 0 -9 -37 -15 -82z"/>
<path d="M4070 3608 c-102 -21 -250 -46 -330 -56 l-145 -18 -3 -102 c-2 -78 -6 -102 -16 -102 -8 0 -17 11 -20 24 -9 35 -115 128 -182 160 -79 38 -236 55 -333 37 -145 -28 -228 -66 -285 -133 -63 -73 -66 -97 -66 -483 l0 -346 26 -54 c15 -32 46 -73 76 -100 69 -62 212 -146 333 -195 401 -164 409 -168 425 -213 31 -85 20 -387 -16 -442 -37 -57 -122 -73 -170 -31 -35 30 -42 80 -43 324 l-1 182 -122 1 c-68 0 -206 8 -308 18 -102 10 -188 16 -192 14 -5 -2 -8 -106 -8 -231 0 -211 2 -232 23 -293 31 -87 64 -143 124 -205 90 -93 195 -162 298 -194 22 -7 50 -17 63 -21 44 -17 225 -22 332 -10 136 16 224 41 336 95 108 52 210 142 278 245 85 127 78 54 77 896 -1 736 3 843 33 1015 16 89 21 246 9 253 -5 2 -91 -14 -193 -35z m-536 -468 c29 -28 34 -94 35 -427 1 -255 -1 -303 -13 -303 -21 0 -127 88 -163 134 -57 74 -67 121 -68 311 0 237 17 289 103 306 48 9 82 3 106 -21z"/>
<path d="M4263 3284 c-10 -45 -13 -234 -12 -755 2 -692 2 -693 15 -474 19 299 16 1321 -3 1229z"/>
<path d="M5863 2494 c-7 -19 5 -288 16 -359 6 -34 9 16 10 163 1 140 -3 212 -9 212 -6 0 -13 -7 -17 -16z"/>
</g>
<g id="layer104" fill="#39c9fe" stroke="none">
<path d="M5520 10814 c-25 -2 -116 -11 -202 -20 l-158 -17 0 -59 c0 -32 -4 -58 -10 -58 -7 0 -10 -301 -11 -882 0 -646 -4 -894 -12 -923 -10 -33 -20 -44 -60 -64 -68 -34 -114 -23 -142 34 -19 39 -20 66 -26 965 -3 509 -6 927 -7 929 -4 8 -204 -34 -397 -83 -33 -8 -87 -22 -120 -30 -33 -8 -82 -20 -110 -28 l-50 -13 -9 -205 c-6 -151 -6 -215 3 -245 31 -106 53 -924 31 -1165 -5 -58 -12 -140 -15 -183 -3 -43 -10 -87 -15 -97 -12 -23 -14 -427 -1 -434 4 -3 116 21 247 54 131 32 288 69 348 81 l108 23 -4 103 c-3 57 -1 103 3 103 4 0 32 -24 61 -53 79 -77 169 -118 272 -124 157 -9 313 28 414 100 l42 30 0 188 0 188 68 3 67 3 3 943 2 942 -137 -2 c-76 -1 -158 -3 -183 -4z"/>
<path d="M6205 10783 c-76 -8 -130 -26 -173 -55 -26 -18 -51 -33 -57 -33 -18 0 -72 -104 -79 -151 -3 -26 -6 -408 -6 -849 0 -672 -2 -804 -14 -808 -8 -3 -16 -29 -20 -64 -4 -32 -12 -74 -18 -93 -12 -42 -51 -121 -56 -115 -4 4 -62 -59 -62 -68 0 -4 35 -7 78 -9 l77 -3 3 -183 2 -184 60 7 c41 5 60 4 60 -4 0 -6 16 -11 36 -11 49 0 264 -27 404 -51 63 -10 121 -19 128 -19 9 0 12 43 12 181 l0 182 38 -6 37 -6 0 177 0 177 -27 3 c-14 2 -32 9 -38 17 -17 20 -9 1479 7 1518 9 18 20 27 36 27 l24 0 -5 178 c-2 97 -6 179 -8 181 -5 5 -79 20 -159 31 -38 5 -92 14 -120 20 -63 12 -122 17 -160 13z"/>
<path d="M6688 10538 c-5 -149 -3 -175 10 -185 14 -12 14 -13 -2 -13 -17 0 -17 -48 -15 -955 2 -857 4 -955 18 -958 13 -4 13 -5 -1 -6 -11 -1 -18 -9 -18 -21 0 -14 10 -22 38 -28 471 -115 658 -160 660 -157 4 3 -16 231 -24 279 -6 34 -5 38 12 34 10 -2 18 -11 16 -19 -6 -42 123 -235 214 -318 51 -47 166 -111 199 -111 13 0 15 22 15 140 0 123 -2 142 -19 159 -23 23 -47 72 -56 113 -4 18 -11 38 -15 43 -5 6 -11 37 -15 70 -4 33 -11 65 -15 70 -5 6 -10 63 -13 128 -2 64 -6 119 -8 120 -2 2 -34 18 -71 35 -68 33 -143 104 -175 166 -28 55 -35 189 -40 807 l-4 616 -212 53 c-117 29 -238 59 -269 65 l-58 12 -2 -181 -3 -181 -40 0 c-34 0 -40 3 -43 23 -3 18 1 22 22 22 l26 0 0 165 0 164 -37 6 c-21 4 -45 9 -54 11 -15 4 -17 -15 -21 -168z m110 -1751 c9 -7 12 -59 12 -198 l0 -189 -39 0 c-22 0 -43 5 -46 10 -4 6 5 10 19 10 l26 0 0 169 c0 160 -1 169 -20 174 -12 3 -20 14 -20 26 0 18 4 20 28 15 15 -4 33 -11 40 -17z"/>
<path d="M1380 10627 c-3 -3 -30 -7 -60 -8 -105 -3 -238 -63 -306 -137 -75 -81 -113 -196 -140 -427 -14 -119 -16 -237 -15 -775 2 -809 12 -919 93 -1084 42 -86 110 -184 166 -241 28 -27 48 -53 46 -57 -8 -13 171 -137 266 -184 132 -65 244 -101 390 -125 268 -44 465 4 611 150 102 103 136 193 164 443 17 154 16 262 -5 338 -6 25 -16 86 -22 136 l-10 91 -67 6 c-86 7 -253 32 -361 52 -47 9 -118 23 -158 30 -40 8 -77 17 -82 20 -7 4 -10 -100 -10 -294 0 -327 -10 -436 -43 -471 -29 -32 -121 -25 -171 14 -46 35 -62 66 -70 142 -10 89 -7 1751 3 1802 5 23 16 51 25 61 50 55 185 13 220 -69 27 -62 36 -173 36 -424 l0 -246 28 0 c15 0 41 -7 57 -16 26 -13 118 -32 370 -73 33 -6 97 -13 143 -17 l82 -7 0 272 c0 190 3 271 11 271 13 0 8 67 -11 148 -14 59 -81 199 -93 194 -4 -1 -25 19 -46 45 -33 42 -84 90 -185 176 -15 13 -44 33 -65 44 -20 11 -57 31 -83 46 -26 14 -71 36 -100 48 -29 11 -66 27 -83 34 -16 7 -61 20 -100 29 -38 8 -108 24 -155 35 -85 20 -260 38 -270 28z"/>
<path d="M9955 10564 c-124 -34 -391 -94 -570 -128 l-60 -11 0 -260 c1 -161 6 -292 14 -345 8 -55 14 -242 18 -525 4 -391 3 -455 -13 -570 -16 -112 -18 -201 -19 -635 l0 -505 50 -1 c68 0 617 118 656 141 10 7 13 2600 2 2758 -4 61 -10 97 -17 96 -6 0 -33 -7 -61 -15z"/>
<path d="M3510 10458 c-25 -4 -103 -14 -174 -23 -72 -9 -138 -21 -147 -26 -10 -5 -29 -9 -43 -9 -14 0 -28 -4 -31 -10 -3 -5 -16 -10 -29 -10 -54 0 -215 -70 -263 -115 -15 -14 -31 -25 -35 -25 -4 0 -27 -26 -50 -57 -24 -32 -46 -60 -51 -61 -4 -2 -14 -17 -22 -32 -48 -93 -71 -234 -50 -314 18 -69 32 -476 16 -476 -6 0 -11 -15 -11 -34 0 -26 -4 -33 -17 -32 -17 1 -18 -13 -17 -164 1 -191 11 -280 29 -280 22 0 26 -29 24 -194 -1 -183 4 -204 76 -317 75 -116 200 -206 340 -244 90 -25 283 -25 405 -1 152 30 296 94 415 186 128 99 249 266 291 400 4 14 8 360 8 770 l2 745 -29 61 c-28 59 -96 149 -113 149 -5 1 -29 14 -54 30 -51 33 -156 70 -221 79 -72 10 -201 12 -249 4z m-43 -413 c47 -33 48 -45 48 -790 0 -648 -1 -704 -18 -752 -14 -40 -25 -55 -52 -67 -78 -38 -137 -7 -152 80 -4 27 -8 351 -8 719 0 706 3 752 45 790 18 16 64 32 100 34 9 1 25 -6 37 -14z"/>
<path d="M8218 10403 c-149 -18 -186 -26 -248 -56 -63 -31 -91 -54 -138 -114 -49 -63 -82 -130 -89 -182 -3 -25 -11 -52 -17 -60 -13 -17 -27 -1040 -14 -1058 5 -7 4 -13 -4 -15 -10 -4 -10 -21 0 -89 6 -47 12 -104 12 -126 0 -23 4 -44 9 -47 4 -3 11 -29 15 -58 4 -29 11 -57 15 -63 5 -5 11 -27 15 -47 4 -21 11 -40 16 -43 6 -4 10 75 10 213 0 236 1 232 -51 232 -14 0 -19 7 -19 25 0 29 2 29 50 12 65 -23 61 -4 59 -308 l-2 -279 28 -40 c33 -48 127 -136 191 -180 50 -35 162 -84 244 -107 74 -21 361 -24 445 -4 106 24 252 102 348 188 59 52 145 182 178 268 8 21 12 252 13 788 l2 759 -28 55 c-34 68 -97 155 -108 148 -4 -2 -15 4 -25 15 -37 41 -125 90 -214 120 -50 16 -99 30 -108 30 -9 0 -44 7 -77 15 -80 19 -373 24 -508 8z m353 -393 c10 -6 27 -25 36 -43 17 -30 18 -84 18 -762 0 -678 -1 -732 -18 -762 -22 -40 -45 -53 -96 -53 -50 0 -84 29 -100 88 -17 60 -17 1390 0 1456 7 28 22 54 37 66 27 22 91 27 123 10z"/>
<path d="M4213 9705 c0 -27 2 -38 4 -22 2 15 2 37 0 50 -2 12 -4 0 -4 -28z"/>
<path d="M9323 9650 c0 -25 2 -35 4 -22 2 12 2 32 0 45 -2 12 -4 2 -4 -23z"/>
<path d="M2589 9425 c-6 -142 -2 -194 14 -168 2 4 2 80 -2 168 l-6 160 -6 -160z"/>
<path d="M5730 8758 c0 -68 -3 -133 -6 -145 -13 -49 16 -19 49 50 25 51 37 93 42 145 l8 72 -47 0 -46 0 0 -122z"/>
<path d="M4540 7409 c-19 -5 -64 -17 -100 -25 -36 -8 -94 -21 -130 -30 -36 -8 -81 -18 -100 -21 -59 -9 -60 -13 -60 -160 l0 -134 58 7 c31 3 64 10 72 14 41 20 40 37 40 -926 0 -620 -3 -924 -10 -924 -7 0 -9 -88 -8 -257 l3 -258 35 2 c19 1 172 36 340 77 168 42 315 78 328 81 l22 5 0 234 c0 137 -4 236 -9 238 -23 8 -34 238 -34 718 -1 489 9 686 35 717 15 19 1 393 -18 458 -23 79 -57 121 -127 157 -59 30 -69 32 -182 35 -66 1 -136 -3 -155 -8z"/>
<path d="M5775 7370 c-11 -5 -42 -9 -70 -10 -27 0 -61 -7 -75 -15 -14 -8 -35 -14 -47 -15 -12 0 -34 -6 -50 -14 -15 -7 -59 -28 -98 -46 -38 -19 -87 -47 -107 -63 -21 -16 -38 -25 -38 -21 0 15 -92 -81 -125 -131 -18 -27 -46 -77 -61 -110 -15 -33 -32 -71 -38 -84 -8 -17 -11 -256 -11 -795 l0 -771 31 -65 c93 -196 299 -296 590 -285 277 10 466 51 639 138 113 58 164 104 228 204 95 150 107 239 107 824 0 760 -25 875 -235 1081 -91 90 -210 153 -327 173 -90 16 -280 19 -313 5z m128 -402 c45 -45 49 -110 44 -818 -2 -396 -8 -675 -14 -704 -12 -58 -36 -81 -92 -91 -56 -9 -94 13 -110 65 -15 52 -17 1421 -1 1479 10 37 40 73 70 84 36 13 82 6 103 -15z"/>
<path d="M1000 5866 l0 -1426 31 0 c17 0 39 -5 49 -10 11 -6 77 -22 147 -36 198 -40 200 -40 359 -79 82 -20 197 -45 256 -56 60 -10 134 -26 165 -34 89 -23 296 -21 361 3 117 45 208 145 251 275 25 75 51 272 51 380 0 99 -26 255 -52 314 -38 85 -111 148 -265 228 -72 38 -89 55 -55 55 64 1 173 24 221 45 115 53 159 124 185 293 12 75 11 87 -4 118 -35 68 -49 187 -48 409 0 99 3 205 7 235 3 30 2 73 -3 95 -18 80 -114 196 -198 240 -21 11 -38 23 -38 27 0 5 -9 8 -21 8 -11 0 -33 6 -47 14 -15 8 -47 20 -72 27 -25 7 -50 16 -56 21 -7 5 -43 16 -80 24 -85 19 -162 38 -234 57 -105 29 -422 106 -540 132 -41 9 -93 21 -115 26 -53 12 -160 30 -212 36 l-43 5 0 -1426z m805 789 c62 -20 102 -43 129 -75 47 -57 51 -85 51 -385 0 -370 -2 -374 -159 -359 -117 11 -106 -34 -106 428 0 221 3 406 7 410 4 3 14 4 22 0 9 -3 34 -12 56 -19z m-20 -1249 c115 -32 165 -71 184 -144 16 -62 23 -311 12 -390 -19 -124 -49 -148 -173 -130 -40 5 -76 15 -80 21 -15 24 -9 659 6 657 1 0 24 -6 51 -14z"/>
<path d="M4255 7010 c-19 -7 -19 -8 -2 -15 19 -8 31 -2 26 13 -2 5 -13 6 -24 2z"/>
<path d="M4055 6969 c-71 -16 -217 -39 -327 -51 l-108 -11 0 -98 c0 -76 -3 -98 -15 -103 -9 -3 -22 5 -32 21 -38 55 -156 163 -179 163 -5 0 -22 7 -39 16 -40 22 -229 31 -320 15 -149 -26 -247 -85 -288 -173 -35 -75 -38 -106 -20 -184 13 -54 17 -136 19 -367 2 -163 5 -306 9 -316 13 -43 203 -175 330 -230 28 -12 59 -26 70 -31 11 -5 61 -25 110 -45 184 -74 283 -122 295 -145 39 -72 33 -403 -7 -459 -28 -38 -87 -64 -127 -57 -72 14 -86 68 -86 334 l0 199 -207 6 c-115 4 -259 13 -322 22 -62 8 -117 12 -122 9 -12 -7 -11 -238 1 -326 32 -220 70 -308 179 -418 126 -126 238 -184 424 -218 71 -14 330 2 396 24 25 8 52 14 61 14 15 0 35 8 156 66 109 53 235 179 294 294 45 91 61 162 68 319 10 205 9 1650 -1 1685 l-8 28 -70 -6 c-66 -7 -71 -6 -76 13 -3 12 -8 20 -12 20 -3 -1 -24 -5 -46 -10z m-521 -429 c16 -6 29 -22 37 -47 16 -50 25 -681 11 -695 -19 -19 -167 106 -200 169 -43 79 -57 369 -24 488 15 51 22 63 52 77 39 20 86 23 124 8z"/>
<path d="M2692 6320 c0 -113 4 -216 8 -230 10 -32 10 365 0 405 -4 17 -8 -61 -8 -175z"/>
<path d="M4960 4679 c-19 -4 -172 -42 -339 -84 -168 -41 -308 -81 -313 -87 -11 -19 -10 -98 2 -98 6 0 10 -46 10 -119 l0 -119 45 14 c25 7 45 9 45 5 0 -7 294 62 545 128 l70 18 3 176 c3 197 8 185 -68 166z"/>
<path d="M6120 3958 c-79 -34 -170 -112 -190 -162 -5 -14 -10 -206 -11 -441 -1 -373 1 -418 16 -441 24 -36 120 -96 275 -171 296 -143 358 -175 431 -222 41 -27 83 -60 92 -74 27 -42 40 -178 29 -315 -11 -133 -23 -165 -70 -183 -56 -22 -143 16 -157 68 -4 16 -10 129 -14 253 l-6 225 -120 12 c-66 7 -201 12 -300 10 l-180 -2 3 -277 c3 -324 2 -321 100 -418 111 -110 243 -185 406 -231 97 -27 370 -69 486 -73 279 -12 467 93 519 290 30 111 41 409 41 1085 0 372 -3 717 -6 767 l-7 91 -51 14 c-28 8 -114 29 -191 46 -77 18 -156 36 -175 41 -19 5 -62 14 -95 19 -33 6 -79 15 -102 20 l-43 8 0 -98 c0 -89 -2 -99 -18 -99 -11 0 -31 23 -56 65 -35 61 -163 185 -191 185 -6 0 -28 9 -50 20 -33 17 -59 20 -165 20 -118 -1 -129 -3 -200 -32z m590 -400 c29 -19 39 -44 50 -129 12 -97 13 -608 2 -627 -6 -9 -27 6 -74 50 -142 137 -172 223 -166 471 5 168 18 223 58 244 27 15 100 9 130 -9z"/>
<path d="M5745 3945 c-5 -3 -66 -11 -135 -20 -153 -18 -242 -32 -295 -44 -22 -6 -57 -13 -77 -16 l-38 -6 0 -84 c0 -79 -1 -85 -21 -85 -11 0 -37 13 -57 29 -33 25 -82 47 -180 79 -42 14 -151 9 -228 -10 -98 -24 -217 -94 -286 -167 -33 -35 -76 -88 -94 -117 l-34 -53 0 -696 c0 -620 -2 -720 -20 -915 -19 -198 -19 -223 -5 -275 73 -283 507 -282 807 2 24 22 57 55 73 74 l30 34 6 -295 c3 -162 7 -312 8 -334 1 -38 2 -38 34 -32 17 3 55 8 82 10 28 2 95 11 150 20 55 10 172 25 260 34 l160 17 3 435 c1 284 -1 442 -8 455 -32 62 -51 246 -43 412 6 126 7 131 30 142 l24 11 -3 210 c-2 139 -7 213 -14 218 -28 18 -42 147 -42 372 0 195 3 233 33 388 9 46 15 112 13 145 l-3 62 -60 2 c-33 1 -64 0 -70 -2z m-614 -465 c10 -6 27 -25 36 -43 17 -30 18 -84 18 -752 l0 -720 -22 -41 c-27 -50 -76 -76 -136 -72 -37 3 -44 7 -59 38 -17 32 -18 89 -18 750 1 753 1 762 46 811 29 32 100 47 135 29z"/>
<path d="M1022 2474 l3 -1429 45 -6 c25 -3 59 -11 75 -17 17 -5 57 -15 90 -22 66 -14 197 -43 290 -65 33 -7 68 -15 78 -17 21 -3 13 -21 132 317 37 105 87 246 112 315 24 69 55 157 68 195 13 39 45 129 70 200 26 72 47 138 47 148 -1 9 6 17 16 17 16 0 17 -39 14 -547 -2 -302 0 -594 3 -650 l7 -102 36 -7 c21 -4 49 -13 64 -20 38 -19 325 -79 436 -90 l62 -7 0 464 c0 342 -3 475 -13 504 -16 53 -15 461 2 478 16 16 15 459 -1 476 -12 11 -14 305 -6 796 l3 140 -40 6 c-69 11 -217 38 -290 54 -38 8 -95 19 -125 25 -30 6 -66 15 -80 20 -14 4 -39 11 -56 14 -31 5 -32 4 -49 -52 -9 -31 -20 -66 -24 -77 -4 -11 -16 -45 -25 -75 -10 -30 -26 -73 -36 -95 -11 -22 -43 -114 -71 -205 -28 -91 -68 -217 -89 -280 -21 -63 -52 -160 -69 -215 -48 -148 -63 -185 -72 -179 -5 3 -9 251 -9 552 0 301 -3 590 -6 642 l-7 96 -141 33 c-165 38 -333 74 -409 87 l-37 6 2 -1428z"/>
<path d="M4218 3625 c-7 -7 -271 -57 -398 -75 -222 -32 -218 -31 -224 -54 -3 -11 -6 -54 -6 -93 0 -58 -3 -73 -15 -73 -8 0 -15 7 -15 16 0 19 -98 124 -117 124 -7 0 -30 11 -51 24 -21 13 -53 27 -72 31 -19 4 -40 12 -47 17 -21 17 -222 4 -306 -20 -100 -27 -133 -44 -183 -90 -80 -73 -78 -61 -84 -477 -5 -370 -5 -370 18 -422 42 -94 202 -209 407 -293 401 -164 409 -168 425 -213 31 -85 20 -387 -16 -442 -37 -57 -122 -73 -170 -31 -35 30 -42 80 -43 324 l-1 182 -122 1 c-68 0 -206 8 -308 18 -102 10 -188 16 -191 15 -10 -5 1 -477 12 -519 44 -164 235 -347 424 -405 22 -7 50 -17 63 -21 44 -17 225 -22 332 -10 136 16 224 41 336 95 151 72 294 227 346 373 18 51 19 65 9 114 -14 71 -15 1408 -1 1488 23 129 32 212 37 314 4 100 3 107 -15 107 -10 0 -21 -2 -24 -5z m-684 -485 c29 -28 34 -94 35 -427 1 -255 -1 -303 -13 -303 -21 0 -127 88 -163 134 -57 74 -67 121 -68 311 0 237 17 289 103 306 48 9 82 3 106 -21z"/>
<path d="M5874 3355 c0 -126 2 -177 3 -112 2 65 2 168 0 230 -1 62 -3 9 -3 -118z"/>
<path d="M4253 3075 c0 -22 2 -30 4 -17 2 12 2 30 0 40 -3 9 -5 -1 -4 -23z"/>
<path d="M5865 2500 c-4 -6 -3 -72 2 -148 l8 -137 6 90 c10 136 10 205 0 205 -6 0 -13 -5 -16 -10z"/>
<path d="M2660 2035 c0 -25 5 -45 10 -45 6 0 10 20 10 45 0 25 -4 45 -10 45 -5 0 -10 -20 -10 -45z"/>
</g>


</svg>